<svg xmlns="http://www.w3.org/2000/svg" xmlns:xlink="http://www.w3.org/1999/xlink" width="500" zoomAndPan="magnify" viewBox="0 0 375 374.999991" height="500" preserveAspectRatio="xMidYMid meet" version="1.0"><defs><g/><clipPath id="0c7e746be8"><path d="M 229 150 L 303 150 L 303 165 L 229 165 Z M 229 150 " clip-rule="nonzero"/></clipPath><clipPath id="1fdb299050"><path d="M 229.449219 150.621094 L 302.183594 152.167969 L 301.914062 164.917969 L 229.179688 163.367188 Z M 229.449219 150.621094 " clip-rule="nonzero"/></clipPath><clipPath id="e408ac2fc7"><path d="M 0 1 L 73 1 L 73 14 L 0 14 Z M 0 1 " clip-rule="nonzero"/></clipPath><clipPath id="0ccbb6e418"><path d="M 0.449219 0.621094 L 73.183594 2.167969 L 72.914062 14.917969 L 0.179688 13.367188 Z M 0.449219 0.621094 " clip-rule="nonzero"/></clipPath><clipPath id="d4bf650140"><path d="M 72.871094 14.703125 L -5.113281 13.042969 L -4.824219 -0.453125 L 73.15625 1.207031 Z M 72.871094 14.703125 " clip-rule="nonzero"/></clipPath><clipPath id="b065114d7f"><rect x="0" width="74" y="0" height="15"/></clipPath><clipPath id="07d7e05785"><path d="M 72 154 L 146 154 L 146 168 L 72 168 Z M 72 154 " clip-rule="nonzero"/></clipPath><clipPath id="2fbe6a90a2"><path d="M 145.242188 167.71875 L 72.507812 166.285156 L 72.757812 153.539062 L 145.492188 154.972656 Z M 145.242188 167.71875 " clip-rule="nonzero"/></clipPath><clipPath id="0b58e7d672"><path d="M 0.480469 0.078125 L 73.679688 0.078125 L 73.679688 13.761719 L 0.480469 13.761719 Z M 0.480469 0.078125 " clip-rule="nonzero"/></clipPath><clipPath id="1bcc179a87"><path d="M 73.242188 13.71875 L 0.507812 12.285156 L 0.757812 -0.460938 L 73.492188 0.972656 Z M 73.242188 13.71875 " clip-rule="nonzero"/></clipPath><clipPath id="abb67e50dc"><path d="M 0.800781 -0.25 L 78.785156 1.285156 L 78.519531 14.785156 L 0.535156 13.246094 Z M 0.800781 -0.25 " clip-rule="nonzero"/></clipPath><clipPath id="8e80ac9923"><rect x="0" width="74" y="0" height="14"/></clipPath><clipPath id="b9de22ef16"><path d="M 24 0.121094 L 44 0.121094 L 44 30 L 24 30 Z M 24 0.121094 " clip-rule="nonzero"/></clipPath><clipPath id="382f398c3c"><path d="M 156 0.121094 L 176 0.121094 L 176 30 L 156 30 Z M 156 0.121094 " clip-rule="nonzero"/></clipPath><clipPath id="4680b8644d"><path d="M 216 0.121094 L 236 0.121094 L 236 31 L 216 31 Z M 216 0.121094 " clip-rule="nonzero"/></clipPath><clipPath id="0d1624f416"><rect x="0" width="237" y="0" height="39"/></clipPath><clipPath id="eb57814baa"><rect x="0" width="73" y="0" height="21"/></clipPath><clipPath id="0e72a3d770"><path d="M 2 8 L 66.238281 8 L 66.238281 91.558594 L 2 91.558594 Z M 2 8 " clip-rule="nonzero"/></clipPath><clipPath id="fdbde758a1"><rect x="0" width="67" y="0" height="92"/></clipPath><clipPath id="927cdc4f97"><rect x="0" width="28" y="0" height="54"/></clipPath><clipPath id="6aab58154f"><path d="M 3 8 L 66.878906 8 L 66.878906 91.558594 L 3 91.558594 Z M 3 8 " clip-rule="nonzero"/></clipPath><clipPath id="12b0c4974d"><rect x="0" width="67" y="0" height="92"/></clipPath></defs><rect x="-37.5" width="450" fill="#ffffff" y="-37.499999" height="449.999989" fill-opacity="1"/><rect x="-37.5" width="450" fill="#f2f1ee" y="-37.499999" height="449.999989" fill-opacity="1"/><g clip-path="url(#0c7e746be8)"><g clip-path="url(#1fdb299050)"><g transform="matrix(1, 0, 0, 1, 229, 150)"><g clip-path="url(#b065114d7f)"><g clip-path="url(#e408ac2fc7)"><g clip-path="url(#0ccbb6e418)"><g clip-path="url(#d4bf650140)"><path fill="#1d1d1d" d="M 72.898438 1.265625 C 71.898438 6.222656 67.410156 9.566406 62.867188 11.148438 C 57.378906 13.0625 51.398438 12.851562 45.757812 11.765625 C 39.753906 10.605469 34.035156 8.398438 28.242188 6.511719 C 22.773438 4.730469 17.15625 3.207031 11.367188 3.148438 C 6.285156 3.101562 1.042969 4.148438 -3.246094 6.996094 C -3.78125 7.351562 -4.300781 7.734375 -4.796875 8.140625 C -4.859375 8.191406 -4.808594 8.636719 -4.808594 8.71875 C -4.8125 8.800781 -4.753906 9.25 -4.820312 9.296875 C -0.804688 6.023438 4.324219 4.566406 9.441406 4.332031 C 15.113281 4.074219 20.671875 5.316406 26.058594 6.976562 C 31.925781 8.78125 37.652344 11.074219 43.640625 12.46875 C 49.242188 13.765625 55.195312 14.332031 60.828125 12.898438 C 65.550781 11.699219 70.488281 8.894531 72.363281 4.132812 C 72.582031 3.570312 72.746094 2.996094 72.859375 2.402344 C 72.9375 2.03125 72.8125 1.617188 72.886719 1.25 Z M 72.898438 1.265625 " fill-opacity="1" fill-rule="nonzero"/></g></g></g></g></g></g></g><g clip-path="url(#07d7e05785)"><g clip-path="url(#2fbe6a90a2)"><g transform="matrix(1, 0, 0, 1, 72, 154)"><g clip-path="url(#8e80ac9923)"><g clip-path="url(#0b58e7d672)"><g clip-path="url(#1bcc179a87)"><g clip-path="url(#abb67e50dc)"><path fill="#1d1d1d" d="M 0.792969 13.191406 C 1.785156 8.230469 6.269531 4.878906 10.808594 3.289062 C 16.292969 1.367188 22.273438 1.566406 27.917969 2.648438 C 33.921875 3.796875 39.644531 5.992188 45.441406 7.871094 C 50.910156 9.640625 56.535156 11.160156 62.324219 11.207031 C 67.402344 11.246094 72.644531 10.191406 76.929688 7.335938 C 77.464844 6.980469 77.980469 6.59375 78.476562 6.1875 C 78.539062 6.140625 78.488281 5.691406 78.488281 5.613281 C 78.492188 5.53125 78.433594 5.082031 78.5 5.035156 C 74.488281 8.3125 69.363281 9.777344 64.246094 10.019531 C 58.574219 10.289062 53.011719 9.054688 47.621094 7.402344 C 41.753906 5.605469 36.027344 3.320312 30.035156 1.941406 C 24.429688 0.648438 18.476562 0.0976562 12.84375 1.539062 C 8.121094 2.742188 3.191406 5.554688 1.324219 10.320312 C 1.109375 10.882812 0.941406 11.460938 0.828125 12.050781 C 0.753906 12.425781 0.878906 12.835938 0.804688 13.207031 Z M 0.792969 13.191406 " fill-opacity="1" fill-rule="nonzero"/></g></g></g></g></g></g></g><g transform="matrix(1, 0, 0, 1, 69, 201)"><g clip-path="url(#0d1624f416)"><g fill="#1d1d1d" fill-opacity="1"><g transform="translate(1.046917, 29.916139)"><g><path d="M 20.234375 0.25 C 19.316406 0.25 18.59375 0.03125 18.0625 -0.40625 C 17.539062 -0.851562 17.078125 -1.503906 16.671875 -2.359375 C 16.273438 -3.222656 15.8125 -4.28125 15.28125 -5.53125 C 14.757812 -6.78125 14.316406 -7.875 13.953125 -8.8125 C 13.585938 -9.757812 13.191406 -10.546875 12.765625 -11.171875 C 12.347656 -11.796875 11.8125 -12.265625 11.15625 -12.578125 C 10.507812 -12.890625 9.644531 -13.046875 8.5625 -13.046875 L 6.25 -13.046875 L 6.25 -4.59375 C 6.25 -3.125 6.347656 -2.109375 6.546875 -1.546875 C 6.753906 -0.992188 7.140625 -0.632812 7.703125 -0.46875 L 7.703125 0 L 1.84375 0 L 1.84375 -0.46875 C 2.394531 -0.632812 2.769531 -0.992188 2.96875 -1.546875 C 3.175781 -2.109375 3.28125 -3.125 3.28125 -4.59375 L 3.28125 -20.703125 C 3.28125 -22.203125 3.175781 -23.222656 2.96875 -23.765625 C 2.769531 -24.304688 2.394531 -24.660156 1.84375 -24.828125 L 1.84375 -25.296875 L 8.96875 -25.296875 C 11.425781 -25.296875 13.335938 -25.046875 14.703125 -24.546875 C 16.078125 -24.054688 17.046875 -23.390625 17.609375 -22.546875 C 18.179688 -21.703125 18.46875 -20.738281 18.46875 -19.65625 C 18.46875 -17.96875 17.863281 -16.523438 16.65625 -15.328125 C 15.457031 -14.140625 13.675781 -13.414062 11.3125 -13.15625 C 12.414062 -13.007812 13.316406 -12.757812 14.015625 -12.40625 C 14.722656 -12.0625 15.300781 -11.59375 15.75 -11 C 16.207031 -10.414062 16.617188 -9.703125 16.984375 -8.859375 C 17.347656 -8.015625 17.742188 -7.035156 18.171875 -5.921875 C 18.753906 -4.484375 19.242188 -3.363281 19.640625 -2.5625 C 20.035156 -1.769531 20.398438 -1.207031 20.734375 -0.875 C 21.078125 -0.550781 21.453125 -0.390625 21.859375 -0.390625 C 21.984375 -0.390625 22.085938 -0.390625 22.171875 -0.390625 C 22.253906 -0.390625 22.34375 -0.40625 22.4375 -0.4375 L 22.4375 0 C 22.175781 0.09375 21.832031 0.15625 21.40625 0.1875 C 20.988281 0.226562 20.597656 0.25 20.234375 0.25 Z M 6.25 -13.59375 L 9.28125 -13.59375 C 11.351562 -13.59375 12.890625 -14.078125 13.890625 -15.046875 C 14.890625 -16.023438 15.390625 -17.285156 15.390625 -18.828125 C 15.390625 -19.910156 15.144531 -20.894531 14.65625 -21.78125 C 14.164062 -22.675781 13.367188 -23.394531 12.265625 -23.9375 C 11.171875 -24.476562 9.734375 -24.75 7.953125 -24.75 C 7.679688 -24.75 7.398438 -24.742188 7.109375 -24.734375 C 6.828125 -24.722656 6.539062 -24.707031 6.25 -24.6875 Z M 6.25 -13.59375 "/></g></g></g><g clip-path="url(#b9de22ef16)"><g fill="#1d1d1d" fill-opacity="1"><g transform="translate(23.165616, 29.916139)"><g><path d="M 0.96875 0 L 0.96875 -0.46875 C 1.53125 -0.632812 1.910156 -0.992188 2.109375 -1.546875 C 2.316406 -2.109375 2.421875 -3.125 2.421875 -4.59375 L 2.421875 -23.75 C 2.421875 -24.59375 2.363281 -25.222656 2.25 -25.640625 C 2.144531 -26.066406 1.988281 -26.375 1.78125 -26.5625 C 1.582031 -26.757812 1.3125 -26.925781 0.96875 -27.0625 L 0.96875 -27.46875 L 4.921875 -29.203125 L 5.234375 -28.953125 L 5.234375 -15 C 6.296875 -15.84375 7.488281 -16.609375 8.8125 -17.296875 C 10.144531 -17.984375 11.507812 -18.328125 12.90625 -18.328125 C 14.6875 -18.328125 16.082031 -17.804688 17.09375 -16.765625 C 18.101562 -15.734375 18.609375 -14.15625 18.609375 -12.03125 L 18.609375 -4.59375 C 18.609375 -3.125 18.710938 -2.109375 18.921875 -1.546875 C 19.128906 -0.992188 19.507812 -0.632812 20.0625 -0.46875 L 20.0625 0 L 14.34375 0 L 14.34375 -0.46875 C 14.894531 -0.632812 15.273438 -0.992188 15.484375 -1.546875 C 15.691406 -2.109375 15.796875 -3.125 15.796875 -4.59375 L 15.796875 -11.3125 C 15.796875 -13.1875 15.394531 -14.625 14.59375 -15.625 C 13.800781 -16.625 12.609375 -17.125 11.015625 -17.125 C 10.035156 -17.125 9.054688 -16.863281 8.078125 -16.34375 C 7.097656 -15.832031 6.148438 -15.191406 5.234375 -14.421875 L 5.234375 -4.59375 C 5.234375 -3.125 5.335938 -2.109375 5.546875 -1.546875 C 5.753906 -0.992188 6.132812 -0.632812 6.6875 -0.46875 L 6.6875 0 Z M 0.96875 0 "/></g></g></g></g><g fill="#1d1d1d" fill-opacity="1"><g transform="translate(44.091644, 29.916139)"><g><path d="M 1.15625 0 L 1.15625 -0.46875 C 1.707031 -0.632812 2.085938 -0.992188 2.296875 -1.546875 C 2.503906 -2.109375 2.609375 -3.125 2.609375 -4.59375 L 2.609375 -12.90625 C 2.609375 -13.75 2.554688 -14.378906 2.453125 -14.796875 C 2.359375 -15.222656 2.203125 -15.53125 1.984375 -15.71875 C 1.765625 -15.914062 1.488281 -16.085938 1.15625 -16.234375 L 1.15625 -16.625 L 5.125 -18.359375 L 5.421875 -18.109375 L 5.421875 -4.59375 C 5.421875 -3.125 5.53125 -2.109375 5.75 -1.546875 C 5.96875 -0.992188 6.335938 -0.632812 6.859375 -0.46875 L 6.859375 0 Z M 1.8125 -22.546875 C 1.8125 -23.128906 2.003906 -23.613281 2.390625 -24 C 2.773438 -24.382812 3.242188 -24.578125 3.796875 -24.578125 C 4.367188 -24.578125 4.84375 -24.382812 5.21875 -24 C 5.59375 -23.613281 5.78125 -23.128906 5.78125 -22.546875 C 5.78125 -22.015625 5.585938 -21.550781 5.203125 -21.15625 C 4.816406 -20.757812 4.347656 -20.5625 3.796875 -20.5625 C 3.242188 -20.5625 2.773438 -20.757812 2.390625 -21.15625 C 2.003906 -21.550781 1.8125 -22.015625 1.8125 -22.546875 Z M 1.8125 -22.546875 "/></g></g></g><g fill="#1d1d1d" fill-opacity="1"><g transform="translate(52.223515, 29.916139)"><g/></g></g><g fill="#1d1d1d" fill-opacity="1"><g transform="translate(59.813271, 29.916139)"><g><path d="M 22.765625 0.25 C 22.210938 0.25 21.53125 0.03125 20.71875 -0.40625 C 19.914062 -0.851562 19.054688 -1.457031 18.140625 -2.21875 C 17.222656 -2.976562 16.296875 -3.816406 15.359375 -4.734375 C 14.492188 -3.097656 13.441406 -1.835938 12.203125 -0.953125 C 10.960938 -0.078125 9.601562 0.359375 8.125 0.359375 C 6.726562 0.359375 5.492188 0.0351562 4.421875 -0.609375 C 3.347656 -1.265625 2.515625 -2.117188 1.921875 -3.171875 C 1.335938 -4.234375 1.046875 -5.394531 1.046875 -6.65625 C 1.046875 -8.269531 1.566406 -9.742188 2.609375 -11.078125 C 3.660156 -12.410156 5.285156 -13.453125 7.484375 -14.203125 C 6.929688 -15.117188 6.484375 -16.007812 6.140625 -16.875 C 5.804688 -17.738281 5.640625 -18.609375 5.640625 -19.484375 C 5.640625 -20.367188 5.890625 -21.28125 6.390625 -22.21875 C 6.898438 -23.164062 7.71875 -23.957031 8.84375 -24.59375 C 9.976562 -25.226562 11.488281 -25.546875 13.375 -25.546875 C 14.070312 -25.546875 14.882812 -25.46875 15.8125 -25.3125 C 16.738281 -25.15625 17.597656 -24.847656 18.390625 -24.390625 L 18.796875 -20.203125 L 18.46875 -20.125 C 17.882812 -21.476562 17.242188 -22.488281 16.546875 -23.15625 C 15.847656 -23.832031 15.132812 -24.285156 14.40625 -24.515625 C 13.6875 -24.742188 12.976562 -24.859375 12.28125 -24.859375 C 11.300781 -24.859375 10.492188 -24.65625 9.859375 -24.25 C 9.234375 -23.84375 8.773438 -23.335938 8.484375 -22.734375 C 8.203125 -22.128906 8.0625 -21.539062 8.0625 -20.96875 C 8.0625 -19.976562 8.347656 -18.910156 8.921875 -17.765625 C 9.503906 -16.617188 10.222656 -15.476562 11.078125 -14.34375 C 11.929688 -13.21875 12.78125 -12.160156 13.625 -11.171875 C 14.6875 -9.941406 15.78125 -8.738281 16.90625 -7.5625 C 18.039062 -6.394531 19.140625 -5.347656 20.203125 -4.421875 C 21.265625 -3.492188 22.234375 -2.753906 23.109375 -2.203125 C 23.992188 -1.648438 24.710938 -1.375 25.265625 -1.375 C 25.835938 -1.375 26.269531 -1.648438 26.5625 -2.203125 C 26.851562 -2.753906 27.050781 -3.460938 27.15625 -4.328125 C 27.269531 -5.203125 27.328125 -6.109375 27.328125 -7.046875 C 27.328125 -7.765625 27.234375 -8.554688 27.046875 -9.421875 C 26.867188 -10.296875 26.632812 -11.078125 26.34375 -11.765625 C 26.050781 -12.453125 25.710938 -12.851562 25.328125 -12.96875 L 17.421875 -12.96875 L 17.59375 -13.484375 L 30.640625 -13.484375 L 30.46875 -12.96875 L 26.28125 -12.96875 C 27.289062 -12.507812 28.101562 -11.796875 28.71875 -10.828125 C 29.332031 -9.867188 29.640625 -8.828125 29.640625 -7.703125 C 29.640625 -6.691406 29.425781 -5.707031 29 -4.75 C 28.582031 -3.800781 28.03125 -2.945312 27.34375 -2.1875 C 26.65625 -1.425781 25.910156 -0.828125 25.109375 -0.390625 C 24.316406 0.0351562 23.535156 0.25 22.765625 0.25 Z M 3.578125 -7.953125 C 3.578125 -6.910156 3.8125 -5.898438 4.28125 -4.921875 C 4.75 -3.953125 5.4375 -3.15625 6.34375 -2.53125 C 7.25 -1.90625 8.328125 -1.59375 9.578125 -1.59375 C 10.515625 -1.59375 11.484375 -1.890625 12.484375 -2.484375 C 13.484375 -3.085938 14.320312 -3.957031 15 -5.09375 C 14.375 -5.71875 13.753906 -6.375 13.140625 -7.0625 C 12.523438 -7.75 11.941406 -8.429688 11.390625 -9.109375 C 10.691406 -9.953125 10.023438 -10.765625 9.390625 -11.546875 C 8.765625 -12.328125 8.210938 -13.09375 7.734375 -13.84375 C 6.117188 -13.21875 5.019531 -12.363281 4.4375 -11.28125 C 3.863281 -10.195312 3.578125 -9.085938 3.578125 -7.953125 Z M 3.578125 -7.953125 "/></g></g></g><g fill="#1d1d1d" fill-opacity="1"><g transform="translate(90.786684, 29.916139)"><g/></g></g><g fill="#1d1d1d" fill-opacity="1"><g transform="translate(98.376439, 29.916139)"><g><path d="M 20.234375 0.25 C 19.316406 0.25 18.59375 0.03125 18.0625 -0.40625 C 17.539062 -0.851562 17.078125 -1.503906 16.671875 -2.359375 C 16.273438 -3.222656 15.8125 -4.28125 15.28125 -5.53125 C 14.757812 -6.78125 14.316406 -7.875 13.953125 -8.8125 C 13.585938 -9.757812 13.191406 -10.546875 12.765625 -11.171875 C 12.347656 -11.796875 11.8125 -12.265625 11.15625 -12.578125 C 10.507812 -12.890625 9.644531 -13.046875 8.5625 -13.046875 L 6.25 -13.046875 L 6.25 -4.59375 C 6.25 -3.125 6.347656 -2.109375 6.546875 -1.546875 C 6.753906 -0.992188 7.140625 -0.632812 7.703125 -0.46875 L 7.703125 0 L 1.84375 0 L 1.84375 -0.46875 C 2.394531 -0.632812 2.769531 -0.992188 2.96875 -1.546875 C 3.175781 -2.109375 3.28125 -3.125 3.28125 -4.59375 L 3.28125 -20.703125 C 3.28125 -22.203125 3.175781 -23.222656 2.96875 -23.765625 C 2.769531 -24.304688 2.394531 -24.660156 1.84375 -24.828125 L 1.84375 -25.296875 L 8.96875 -25.296875 C 11.425781 -25.296875 13.335938 -25.046875 14.703125 -24.546875 C 16.078125 -24.054688 17.046875 -23.390625 17.609375 -22.546875 C 18.179688 -21.703125 18.46875 -20.738281 18.46875 -19.65625 C 18.46875 -17.96875 17.863281 -16.523438 16.65625 -15.328125 C 15.457031 -14.140625 13.675781 -13.414062 11.3125 -13.15625 C 12.414062 -13.007812 13.316406 -12.757812 14.015625 -12.40625 C 14.722656 -12.0625 15.300781 -11.59375 15.75 -11 C 16.207031 -10.414062 16.617188 -9.703125 16.984375 -8.859375 C 17.347656 -8.015625 17.742188 -7.035156 18.171875 -5.921875 C 18.753906 -4.484375 19.242188 -3.363281 19.640625 -2.5625 C 20.035156 -1.769531 20.398438 -1.207031 20.734375 -0.875 C 21.078125 -0.550781 21.453125 -0.390625 21.859375 -0.390625 C 21.984375 -0.390625 22.085938 -0.390625 22.171875 -0.390625 C 22.253906 -0.390625 22.34375 -0.40625 22.4375 -0.4375 L 22.4375 0 C 22.175781 0.09375 21.832031 0.15625 21.40625 0.1875 C 20.988281 0.226562 20.597656 0.25 20.234375 0.25 Z M 6.25 -13.59375 L 9.28125 -13.59375 C 11.351562 -13.59375 12.890625 -14.078125 13.890625 -15.046875 C 14.890625 -16.023438 15.390625 -17.285156 15.390625 -18.828125 C 15.390625 -19.910156 15.144531 -20.894531 14.65625 -21.78125 C 14.164062 -22.675781 13.367188 -23.394531 12.265625 -23.9375 C 11.171875 -24.476562 9.734375 -24.75 7.953125 -24.75 C 7.679688 -24.75 7.398438 -24.742188 7.109375 -24.734375 C 6.828125 -24.722656 6.539062 -24.707031 6.25 -24.6875 Z M 6.25 -13.59375 "/></g></g></g><g fill="#1d1d1d" fill-opacity="1"><g transform="translate(120.495138, 29.916139)"><g><path d="M 15.140625 0 C 14.421875 0 14.0625 -0.359375 14.0625 -1.078125 L 14.0625 -7.59375 C 13.695312 -6.125 13.128906 -4.785156 12.359375 -3.578125 C 11.585938 -2.367188 10.6875 -1.410156 9.65625 -0.703125 C 8.632812 0.00390625 7.523438 0.359375 6.328125 0.359375 C 5.429688 0.359375 4.597656 0.179688 3.828125 -0.171875 C 3.054688 -0.535156 2.4375 -1.066406 1.96875 -1.765625 C 1.5 -2.460938 1.265625 -3.332031 1.265625 -4.375 C 1.265625 -5.625 1.632812 -6.644531 2.375 -7.4375 C 3.125 -8.238281 4.117188 -8.890625 5.359375 -9.390625 C 6.609375 -9.898438 7.941406 -10.347656 9.359375 -10.734375 L 14.0625 -12 C 13.96875 -13.757812 13.484375 -15.050781 12.609375 -15.875 C 11.742188 -16.707031 10.539062 -17.125 9 -17.125 C 7.914062 -17.125 6.859375 -16.863281 5.828125 -16.34375 C 4.804688 -15.832031 3.835938 -15.023438 2.921875 -13.921875 L 2.609375 -14.203125 C 3.640625 -15.484375 4.8125 -16.488281 6.125 -17.21875 C 7.4375 -17.957031 8.875 -18.328125 10.4375 -18.328125 C 12.632812 -18.328125 14.25 -17.753906 15.28125 -16.609375 C 16.320312 -15.460938 16.84375 -13.863281 16.84375 -11.8125 L 16.84375 -4.59375 C 16.84375 -3.125 16.941406 -2.109375 17.140625 -1.546875 C 17.347656 -0.992188 17.726562 -0.632812 18.28125 -0.46875 L 18.28125 0 Z M 3.96875 -5.390625 C 3.96875 -4.203125 4.320312 -3.300781 5.03125 -2.6875 C 5.75 -2.070312 6.625 -1.765625 7.65625 -1.765625 C 8.625 -1.765625 9.5 -2.035156 10.28125 -2.578125 C 11.0625 -3.117188 11.726562 -3.820312 12.28125 -4.6875 C 12.84375 -5.5625 13.28125 -6.503906 13.59375 -7.515625 C 13.90625 -8.523438 14.0625 -9.5 14.0625 -10.4375 L 14.0625 -11.53125 L 9.5 -10.296875 C 8.613281 -10.054688 7.742188 -9.738281 6.890625 -9.34375 C 6.035156 -8.945312 5.332031 -8.429688 4.78125 -7.796875 C 4.238281 -7.171875 3.96875 -6.367188 3.96875 -5.390625 Z M 3.96875 -5.390625 "/></g></g></g><g fill="#1d1d1d" fill-opacity="1"><g transform="translate(139.650228, 29.916139)"><g><path d="M 8.171875 0.328125 C 6.722656 0.328125 5.414062 0.144531 4.25 -0.21875 C 3.082031 -0.582031 2.195312 -0.957031 1.59375 -1.34375 L 1.265625 -5.703125 L 1.59375 -5.78125 C 2.363281 -4.070312 3.375 -2.726562 4.625 -1.75 C 5.875 -0.78125 7.320312 -0.28125 8.96875 -0.25 C 10.09375 -0.25 11.019531 -0.554688 11.75 -1.171875 C 12.488281 -1.785156 12.859375 -2.597656 12.859375 -3.609375 C 12.859375 -4.484375 12.613281 -5.179688 12.125 -5.703125 C 11.632812 -6.234375 10.984375 -6.664062 10.171875 -7 C 9.367188 -7.34375 8.492188 -7.660156 7.546875 -7.953125 C 6.421875 -8.316406 5.410156 -8.695312 4.515625 -9.09375 C 3.628906 -9.488281 2.929688 -10.007812 2.421875 -10.65625 C 1.910156 -11.3125 1.65625 -12.179688 1.65625 -13.265625 C 1.65625 -14.679688 2.226562 -15.878906 3.375 -16.859375 C 4.519531 -17.835938 6.140625 -18.328125 8.234375 -18.328125 C 9.421875 -18.328125 10.515625 -18.222656 11.515625 -18.015625 C 12.515625 -17.804688 13.289062 -17.582031 13.84375 -17.34375 L 13.984375 -13.65625 L 13.625 -13.59375 C 13.039062 -14.894531 12.207031 -15.929688 11.125 -16.703125 C 10.039062 -17.472656 8.863281 -17.859375 7.59375 -17.859375 C 6.363281 -17.859375 5.378906 -17.578125 4.640625 -17.015625 C 3.910156 -16.460938 3.546875 -15.726562 3.546875 -14.8125 C 3.546875 -14.070312 3.78125 -13.445312 4.25 -12.9375 C 4.71875 -12.425781 5.34375 -11.992188 6.125 -11.640625 C 6.90625 -11.296875 7.765625 -10.96875 8.703125 -10.65625 C 9.410156 -10.445312 10.117188 -10.210938 10.828125 -9.953125 C 11.535156 -9.703125 12.179688 -9.390625 12.765625 -9.015625 C 13.359375 -8.640625 13.84375 -8.15625 14.21875 -7.5625 C 14.59375 -6.976562 14.78125 -6.226562 14.78125 -5.3125 C 14.78125 -4.300781 14.53125 -3.367188 14.03125 -2.515625 C 13.539062 -1.660156 12.800781 -0.976562 11.8125 -0.46875 C 10.832031 0.0390625 9.617188 0.304688 8.171875 0.328125 Z M 8.171875 0.328125 "/></g></g></g><g clip-path="url(#382f398c3c)"><g fill="#1d1d1d" fill-opacity="1"><g transform="translate(155.73327, 29.916139)"><g><path d="M 0.96875 0 L 0.96875 -0.46875 C 1.53125 -0.632812 1.910156 -0.992188 2.109375 -1.546875 C 2.316406 -2.109375 2.421875 -3.125 2.421875 -4.59375 L 2.421875 -23.75 C 2.421875 -24.59375 2.363281 -25.222656 2.25 -25.640625 C 2.144531 -26.066406 1.988281 -26.375 1.78125 -26.5625 C 1.582031 -26.757812 1.3125 -26.925781 0.96875 -27.0625 L 0.96875 -27.46875 L 4.921875 -29.203125 L 5.234375 -28.953125 L 5.234375 -15 C 6.296875 -15.84375 7.488281 -16.609375 8.8125 -17.296875 C 10.144531 -17.984375 11.507812 -18.328125 12.90625 -18.328125 C 14.6875 -18.328125 16.082031 -17.804688 17.09375 -16.765625 C 18.101562 -15.734375 18.609375 -14.15625 18.609375 -12.03125 L 18.609375 -4.59375 C 18.609375 -3.125 18.710938 -2.109375 18.921875 -1.546875 C 19.128906 -0.992188 19.507812 -0.632812 20.0625 -0.46875 L 20.0625 0 L 14.34375 0 L 14.34375 -0.46875 C 14.894531 -0.632812 15.273438 -0.992188 15.484375 -1.546875 C 15.691406 -2.109375 15.796875 -3.125 15.796875 -4.59375 L 15.796875 -11.3125 C 15.796875 -13.1875 15.394531 -14.625 14.59375 -15.625 C 13.800781 -16.625 12.609375 -17.125 11.015625 -17.125 C 10.035156 -17.125 9.054688 -16.863281 8.078125 -16.34375 C 7.097656 -15.832031 6.148438 -15.191406 5.234375 -14.421875 L 5.234375 -4.59375 C 5.234375 -3.125 5.335938 -2.109375 5.546875 -1.546875 C 5.753906 -0.992188 6.132812 -0.632812 6.6875 -0.46875 L 6.6875 0 Z M 0.96875 0 "/></g></g></g></g><g fill="#1d1d1d" fill-opacity="1"><g transform="translate(176.659298, 29.916139)"><g><path d="M 15.140625 0 C 14.421875 0 14.0625 -0.359375 14.0625 -1.078125 L 14.0625 -7.59375 C 13.695312 -6.125 13.128906 -4.785156 12.359375 -3.578125 C 11.585938 -2.367188 10.6875 -1.410156 9.65625 -0.703125 C 8.632812 0.00390625 7.523438 0.359375 6.328125 0.359375 C 5.429688 0.359375 4.597656 0.179688 3.828125 -0.171875 C 3.054688 -0.535156 2.4375 -1.066406 1.96875 -1.765625 C 1.5 -2.460938 1.265625 -3.332031 1.265625 -4.375 C 1.265625 -5.625 1.632812 -6.644531 2.375 -7.4375 C 3.125 -8.238281 4.117188 -8.890625 5.359375 -9.390625 C 6.609375 -9.898438 7.941406 -10.347656 9.359375 -10.734375 L 14.0625 -12 C 13.96875 -13.757812 13.484375 -15.050781 12.609375 -15.875 C 11.742188 -16.707031 10.539062 -17.125 9 -17.125 C 7.914062 -17.125 6.859375 -16.863281 5.828125 -16.34375 C 4.804688 -15.832031 3.835938 -15.023438 2.921875 -13.921875 L 2.609375 -14.203125 C 3.640625 -15.484375 4.8125 -16.488281 6.125 -17.21875 C 7.4375 -17.957031 8.875 -18.328125 10.4375 -18.328125 C 12.632812 -18.328125 14.25 -17.753906 15.28125 -16.609375 C 16.320312 -15.460938 16.84375 -13.863281 16.84375 -11.8125 L 16.84375 -4.59375 C 16.84375 -3.125 16.941406 -2.109375 17.140625 -1.546875 C 17.347656 -0.992188 17.726562 -0.632812 18.28125 -0.46875 L 18.28125 0 Z M 3.96875 -5.390625 C 3.96875 -4.203125 4.320312 -3.300781 5.03125 -2.6875 C 5.75 -2.070312 6.625 -1.765625 7.65625 -1.765625 C 8.625 -1.765625 9.5 -2.035156 10.28125 -2.578125 C 11.0625 -3.117188 11.726562 -3.820312 12.28125 -4.6875 C 12.84375 -5.5625 13.28125 -6.503906 13.59375 -7.515625 C 13.90625 -8.523438 14.0625 -9.5 14.0625 -10.4375 L 14.0625 -11.53125 L 9.5 -10.296875 C 8.613281 -10.054688 7.742188 -9.738281 6.890625 -9.34375 C 6.035156 -8.945312 5.332031 -8.429688 4.78125 -7.796875 C 4.238281 -7.171875 3.96875 -6.367188 3.96875 -5.390625 Z M 3.96875 -5.390625 "/></g></g></g><g fill="#1d1d1d" fill-opacity="1"><g transform="translate(195.814387, 29.916139)"><g><path d="M 15.140625 0 C 14.421875 0 14.0625 -0.359375 14.0625 -1.078125 L 14.0625 -7.59375 C 13.695312 -6.125 13.128906 -4.785156 12.359375 -3.578125 C 11.585938 -2.367188 10.6875 -1.410156 9.65625 -0.703125 C 8.632812 0.00390625 7.523438 0.359375 6.328125 0.359375 C 5.429688 0.359375 4.597656 0.179688 3.828125 -0.171875 C 3.054688 -0.535156 2.4375 -1.066406 1.96875 -1.765625 C 1.5 -2.460938 1.265625 -3.332031 1.265625 -4.375 C 1.265625 -5.625 1.632812 -6.644531 2.375 -7.4375 C 3.125 -8.238281 4.117188 -8.890625 5.359375 -9.390625 C 6.609375 -9.898438 7.941406 -10.347656 9.359375 -10.734375 L 14.0625 -12 C 13.96875 -13.757812 13.484375 -15.050781 12.609375 -15.875 C 11.742188 -16.707031 10.539062 -17.125 9 -17.125 C 7.914062 -17.125 6.859375 -16.863281 5.828125 -16.34375 C 4.804688 -15.832031 3.835938 -15.023438 2.921875 -13.921875 L 2.609375 -14.203125 C 3.640625 -15.484375 4.8125 -16.488281 6.125 -17.21875 C 7.4375 -17.957031 8.875 -18.328125 10.4375 -18.328125 C 12.632812 -18.328125 14.25 -17.753906 15.28125 -16.609375 C 16.320312 -15.460938 16.84375 -13.863281 16.84375 -11.8125 L 16.84375 -4.59375 C 16.84375 -3.125 16.941406 -2.109375 17.140625 -1.546875 C 17.347656 -0.992188 17.726562 -0.632812 18.28125 -0.46875 L 18.28125 0 Z M 3.96875 -5.390625 C 3.96875 -4.203125 4.320312 -3.300781 5.03125 -2.6875 C 5.75 -2.070312 6.625 -1.765625 7.65625 -1.765625 C 8.625 -1.765625 9.5 -2.035156 10.28125 -2.578125 C 11.0625 -3.117188 11.726562 -3.820312 12.28125 -4.6875 C 12.84375 -5.5625 13.28125 -6.503906 13.59375 -7.515625 C 13.90625 -8.523438 14.0625 -9.5 14.0625 -10.4375 L 14.0625 -11.53125 L 9.5 -10.296875 C 8.613281 -10.054688 7.742188 -9.738281 6.890625 -9.34375 C 6.035156 -8.945312 5.332031 -8.429688 4.78125 -7.796875 C 4.238281 -7.171875 3.96875 -6.367188 3.96875 -5.390625 Z M 3.96875 -5.390625 "/></g></g></g><g clip-path="url(#4680b8644d)"><g fill="#1d1d1d" fill-opacity="1"><g transform="translate(214.96949, 29.916139)"><g><path d="M 9.28125 0.390625 C 7.789062 0.367188 6.441406 -0.03125 5.234375 -0.8125 C 4.035156 -1.59375 3.078125 -2.664062 2.359375 -4.03125 C 1.648438 -5.394531 1.296875 -6.914062 1.296875 -8.59375 C 1.296875 -10.28125 1.671875 -11.859375 2.421875 -13.328125 C 3.171875 -14.804688 4.257812 -16 5.6875 -16.90625 C 7.125 -17.820312 8.878906 -18.28125 10.953125 -18.28125 C 11.941406 -18.28125 12.847656 -18.144531 13.671875 -17.875 C 14.503906 -17.613281 15.234375 -17.28125 15.859375 -16.875 L 15.859375 -23.75 C 15.859375 -24.59375 15.804688 -25.222656 15.703125 -25.640625 C 15.597656 -26.066406 15.441406 -26.375 15.234375 -26.5625 C 15.023438 -26.757812 14.753906 -26.925781 14.421875 -27.0625 L 14.421875 -27.46875 L 18.390625 -29.203125 L 18.6875 -28.953125 L 18.6875 -4.59375 C 18.6875 -3.125 18.785156 -2.109375 18.984375 -1.546875 C 19.191406 -0.992188 19.570312 -0.632812 20.125 -0.46875 L 20.125 0 L 16.953125 0 C 16.222656 0 15.859375 -0.359375 15.859375 -1.078125 L 15.859375 -3.140625 C 14.972656 -2.222656 13.972656 -1.394531 12.859375 -0.65625 C 11.753906 0.0703125 10.5625 0.421875 9.28125 0.390625 Z M 4.015625 -10.765625 C 4.015625 -9.710938 4.144531 -8.632812 4.40625 -7.53125 C 4.675781 -6.4375 5.082031 -5.421875 5.625 -4.484375 C 6.164062 -3.546875 6.875 -2.789062 7.75 -2.21875 C 8.632812 -1.65625 9.691406 -1.375 10.921875 -1.375 C 11.859375 -1.375 12.738281 -1.59375 13.5625 -2.03125 C 14.394531 -2.476562 15.160156 -3.066406 15.859375 -3.796875 L 15.859375 -12.65625 C 15.765625 -13.445312 15.425781 -14.222656 14.84375 -14.984375 C 14.269531 -15.742188 13.539062 -16.367188 12.65625 -16.859375 C 11.78125 -17.347656 10.835938 -17.59375 9.828125 -17.59375 C 8.554688 -17.59375 7.484375 -17.289062 6.609375 -16.6875 C 5.742188 -16.09375 5.09375 -15.273438 4.65625 -14.234375 C 4.226562 -13.203125 4.015625 -12.046875 4.015625 -10.765625 Z M 4.015625 -10.765625 "/></g></g></g></g></g></g><g transform="matrix(1, 0, 0, 1, 151, 247)"><g clip-path="url(#eb57814baa)"><g fill="#1d1d1d" fill-opacity="1"><g transform="translate(1.047744, 14.58667)"><g><path d="M 0.921875 -6.90625 L 0.75 -6.890625 C 0.707031 -6.890625 0.6875 -6.898438 0.6875 -6.921875 C 0.6875 -7.054688 0.765625 -7.351562 0.921875 -7.8125 C 1.078125 -8.269531 1.257812 -8.609375 1.46875 -8.828125 C 2.15625 -9.535156 2.929688 -9.890625 3.796875 -9.890625 C 4.660156 -9.890625 5.351562 -9.617188 5.875 -9.078125 C 6.40625 -8.535156 6.671875 -7.851562 6.671875 -7.03125 C 6.671875 -6.207031 6.140625 -5.300781 5.078125 -4.3125 C 4.742188 -4 4.46875 -3.75 4.25 -3.5625 C 3.957031 -3.3125 3.445312 -2.832031 2.71875 -2.125 C 2 -1.425781 1.640625 -1.039062 1.640625 -0.96875 L 5.6875 -0.96875 C 6.03125 -0.96875 6.273438 -1.066406 6.421875 -1.265625 C 6.503906 -1.378906 6.613281 -1.679688 6.75 -2.171875 L 7.015625 -2.171875 L 6.71875 -0.234375 C 6.6875 -0.128906 6.628906 -0.0507812 6.546875 0 L 0.578125 0 C 0.554688 0 0.546875 -0.0625 0.546875 -0.1875 C 0.546875 -0.300781 0.65625 -0.484375 0.875 -0.734375 C 1.101562 -0.992188 1.390625 -1.296875 1.734375 -1.640625 C 2.078125 -1.992188 2.546875 -2.46875 3.140625 -3.0625 C 4.660156 -4.613281 5.421875 -5.851562 5.421875 -6.78125 C 5.421875 -7.34375 5.210938 -7.851562 4.796875 -8.3125 C 4.390625 -8.78125 3.910156 -9.015625 3.359375 -9.015625 C 2.816406 -9.015625 2.332031 -8.832031 1.90625 -8.46875 C 1.476562 -8.09375 1.191406 -7.613281 1.046875 -7.03125 C 1.023438 -6.945312 0.984375 -6.90625 0.921875 -6.90625 Z M 0.921875 -6.90625 "/></g></g></g><g fill="#1d1d1d" fill-opacity="1"><g transform="translate(8.932125, 14.58667)"><g><path d="M 0.546875 -4.96875 C 0.546875 -6.144531 0.875 -7.257812 1.53125 -8.3125 C 2.195312 -9.363281 2.929688 -9.890625 3.734375 -9.890625 C 4.367188 -9.890625 4.9375 -9.644531 5.4375 -9.15625 C 5.945312 -8.675781 6.332031 -8.039062 6.59375 -7.25 C 6.851562 -6.46875 6.984375 -5.648438 6.984375 -4.796875 C 6.984375 -3.492188 6.6875 -2.351562 6.09375 -1.375 C 5.707031 -0.71875 5.234375 -0.257812 4.671875 0 C 4.390625 0.125 4.09375 0.1875 3.78125 0.1875 C 3.207031 0.1875 2.671875 -0.046875 2.171875 -0.515625 C 1.671875 -0.984375 1.273438 -1.566406 0.984375 -2.265625 C 0.691406 -2.972656 0.546875 -3.648438 0.546875 -4.296875 Z M 3.8125 -0.234375 C 5.144531 -0.234375 5.8125 -1.617188 5.8125 -4.390625 C 5.8125 -5.554688 5.789062 -6.335938 5.75 -6.734375 C 5.644531 -7.578125 5.453125 -8.21875 5.171875 -8.65625 C 4.828125 -9.195312 4.332031 -9.46875 3.6875 -9.46875 C 2.476562 -9.46875 1.820312 -8.238281 1.71875 -5.78125 C 1.707031 -5.425781 1.703125 -5.003906 1.703125 -4.515625 C 1.703125 -3.203125 1.84375 -2.191406 2.125 -1.484375 C 2.457031 -0.648438 3.019531 -0.234375 3.8125 -0.234375 Z M 3.8125 -0.234375 "/></g></g></g><g fill="#1d1d1d" fill-opacity="1"><g transform="translate(16.816506, 14.58667)"><g><path d="M 0.9375 -0.71875 C 0.9375 -0.976562 1.023438 -1.203125 1.203125 -1.390625 C 1.390625 -1.578125 1.609375 -1.671875 1.859375 -1.671875 C 2.117188 -1.671875 2.335938 -1.578125 2.515625 -1.390625 C 2.703125 -1.210938 2.796875 -0.988281 2.796875 -0.71875 C 2.796875 -0.457031 2.703125 -0.238281 2.515625 -0.0625 C 2.335938 0.101562 2.117188 0.1875 1.859375 0.1875 C 1.609375 0.1875 1.390625 0.0976562 1.203125 -0.078125 C 1.023438 -0.253906 0.9375 -0.46875 0.9375 -0.71875 Z M 0.9375 -0.71875 "/></g></g></g><g fill="#1d1d1d" fill-opacity="1"><g transform="translate(20.910124, 14.58667)"><g><path d="M 0.546875 -4.96875 C 0.546875 -6.144531 0.875 -7.257812 1.53125 -8.3125 C 2.195312 -9.363281 2.929688 -9.890625 3.734375 -9.890625 C 4.367188 -9.890625 4.9375 -9.644531 5.4375 -9.15625 C 5.945312 -8.675781 6.332031 -8.039062 6.59375 -7.25 C 6.851562 -6.46875 6.984375 -5.648438 6.984375 -4.796875 C 6.984375 -3.492188 6.6875 -2.351562 6.09375 -1.375 C 5.707031 -0.71875 5.234375 -0.257812 4.671875 0 C 4.390625 0.125 4.09375 0.1875 3.78125 0.1875 C 3.207031 0.1875 2.671875 -0.046875 2.171875 -0.515625 C 1.671875 -0.984375 1.273438 -1.566406 0.984375 -2.265625 C 0.691406 -2.972656 0.546875 -3.648438 0.546875 -4.296875 Z M 3.8125 -0.234375 C 5.144531 -0.234375 5.8125 -1.617188 5.8125 -4.390625 C 5.8125 -5.554688 5.789062 -6.335938 5.75 -6.734375 C 5.644531 -7.578125 5.453125 -8.21875 5.171875 -8.65625 C 4.828125 -9.195312 4.332031 -9.46875 3.6875 -9.46875 C 2.476562 -9.46875 1.820312 -8.238281 1.71875 -5.78125 C 1.707031 -5.425781 1.703125 -5.003906 1.703125 -4.515625 C 1.703125 -3.203125 1.84375 -2.191406 2.125 -1.484375 C 2.457031 -0.648438 3.019531 -0.234375 3.8125 -0.234375 Z M 3.8125 -0.234375 "/></g></g></g><g fill="#1d1d1d" fill-opacity="1"><g transform="translate(28.794505, 14.58667)"><g><path d="M 6.453125 -9.875 C 6.523438 -9.875 6.5625 -9.835938 6.5625 -9.765625 C 6.5625 -9.691406 6.363281 -9.546875 5.96875 -9.328125 C 5.582031 -9.117188 5.34375 -8.984375 5.25 -8.921875 C 4.9375 -8.710938 4.625 -8.484375 4.3125 -8.234375 C 3.289062 -7.410156 2.773438 -6.738281 2.765625 -6.21875 C 2.796875 -6.21875 2.835938 -6.226562 2.890625 -6.25 C 2.941406 -6.28125 3.03125 -6.320312 3.15625 -6.375 C 3.289062 -6.425781 3.53125 -6.453125 3.875 -6.453125 C 4.21875 -6.453125 4.585938 -6.363281 4.984375 -6.1875 C 5.378906 -6.007812 5.71875 -5.773438 6 -5.484375 C 6.613281 -4.835938 6.921875 -4.050781 6.921875 -3.125 C 6.921875 -2.195312 6.609375 -1.410156 5.984375 -0.765625 C 5.359375 -0.128906 4.582031 0.1875 3.65625 0.1875 C 2.726562 0.1875 1.984375 -0.191406 1.421875 -0.953125 C 0.859375 -1.710938 0.578125 -2.59375 0.578125 -3.59375 C 0.578125 -4.851562 0.984375 -5.953125 1.796875 -6.890625 C 2.503906 -7.691406 3.710938 -8.5625 5.421875 -9.5 C 5.609375 -9.601562 5.804688 -9.691406 6.015625 -9.765625 C 6.234375 -9.835938 6.378906 -9.875 6.453125 -9.875 Z M 1.765625 -3.1875 C 1.765625 -2.4375 1.90625 -1.78125 2.1875 -1.21875 C 2.53125 -0.53125 3.035156 -0.1875 3.703125 -0.1875 C 4.378906 -0.1875 4.882812 -0.488281 5.21875 -1.09375 C 5.507812 -1.601562 5.65625 -2.21875 5.65625 -2.9375 C 5.65625 -4.351562 5.273438 -5.296875 4.515625 -5.765625 C 4.242188 -5.941406 3.921875 -6.03125 3.546875 -6.03125 C 2.878906 -6.03125 2.410156 -5.757812 2.140625 -5.21875 C 1.898438 -4.769531 1.773438 -4.117188 1.765625 -3.265625 Z M 1.765625 -3.1875 "/></g></g></g><g fill="#1d1d1d" fill-opacity="1"><g transform="translate(36.678886, 14.58667)"><g><path d="M 0.9375 -0.71875 C 0.9375 -0.976562 1.023438 -1.203125 1.203125 -1.390625 C 1.390625 -1.578125 1.609375 -1.671875 1.859375 -1.671875 C 2.117188 -1.671875 2.335938 -1.578125 2.515625 -1.390625 C 2.703125 -1.210938 2.796875 -0.988281 2.796875 -0.71875 C 2.796875 -0.457031 2.703125 -0.238281 2.515625 -0.0625 C 2.335938 0.101562 2.117188 0.1875 1.859375 0.1875 C 1.609375 0.1875 1.390625 0.0976562 1.203125 -0.078125 C 1.023438 -0.253906 0.9375 -0.46875 0.9375 -0.71875 Z M 0.9375 -0.71875 "/></g></g></g><g fill="#1d1d1d" fill-opacity="1"><g transform="translate(40.772504, 14.58667)"><g><path d="M 0.921875 -6.90625 L 0.75 -6.890625 C 0.707031 -6.890625 0.6875 -6.898438 0.6875 -6.921875 C 0.6875 -7.054688 0.765625 -7.351562 0.921875 -7.8125 C 1.078125 -8.269531 1.257812 -8.609375 1.46875 -8.828125 C 2.15625 -9.535156 2.929688 -9.890625 3.796875 -9.890625 C 4.660156 -9.890625 5.351562 -9.617188 5.875 -9.078125 C 6.40625 -8.535156 6.671875 -7.851562 6.671875 -7.03125 C 6.671875 -6.207031 6.140625 -5.300781 5.078125 -4.3125 C 4.742188 -4 4.46875 -3.75 4.25 -3.5625 C 3.957031 -3.3125 3.445312 -2.832031 2.71875 -2.125 C 2 -1.425781 1.640625 -1.039062 1.640625 -0.96875 L 5.6875 -0.96875 C 6.03125 -0.96875 6.273438 -1.066406 6.421875 -1.265625 C 6.503906 -1.378906 6.613281 -1.679688 6.75 -2.171875 L 7.015625 -2.171875 L 6.71875 -0.234375 C 6.6875 -0.128906 6.628906 -0.0507812 6.546875 0 L 0.578125 0 C 0.554688 0 0.546875 -0.0625 0.546875 -0.1875 C 0.546875 -0.300781 0.65625 -0.484375 0.875 -0.734375 C 1.101562 -0.992188 1.390625 -1.296875 1.734375 -1.640625 C 2.078125 -1.992188 2.546875 -2.46875 3.140625 -3.0625 C 4.660156 -4.613281 5.421875 -5.851562 5.421875 -6.78125 C 5.421875 -7.34375 5.210938 -7.851562 4.796875 -8.3125 C 4.390625 -8.78125 3.910156 -9.015625 3.359375 -9.015625 C 2.816406 -9.015625 2.332031 -8.832031 1.90625 -8.46875 C 1.476562 -8.09375 1.191406 -7.613281 1.046875 -7.03125 C 1.023438 -6.945312 0.984375 -6.90625 0.921875 -6.90625 Z M 0.921875 -6.90625 "/></g></g></g><g fill="#1d1d1d" fill-opacity="1"><g transform="translate(48.656885, 14.58667)"><g><path d="M 0.546875 -4.96875 C 0.546875 -6.144531 0.875 -7.257812 1.53125 -8.3125 C 2.195312 -9.363281 2.929688 -9.890625 3.734375 -9.890625 C 4.367188 -9.890625 4.9375 -9.644531 5.4375 -9.15625 C 5.945312 -8.675781 6.332031 -8.039062 6.59375 -7.25 C 6.851562 -6.46875 6.984375 -5.648438 6.984375 -4.796875 C 6.984375 -3.492188 6.6875 -2.351562 6.09375 -1.375 C 5.707031 -0.71875 5.234375 -0.257812 4.671875 0 C 4.390625 0.125 4.09375 0.1875 3.78125 0.1875 C 3.207031 0.1875 2.671875 -0.046875 2.171875 -0.515625 C 1.671875 -0.984375 1.273438 -1.566406 0.984375 -2.265625 C 0.691406 -2.972656 0.546875 -3.648438 0.546875 -4.296875 Z M 3.8125 -0.234375 C 5.144531 -0.234375 5.8125 -1.617188 5.8125 -4.390625 C 5.8125 -5.554688 5.789062 -6.335938 5.75 -6.734375 C 5.644531 -7.578125 5.453125 -8.21875 5.171875 -8.65625 C 4.828125 -9.195312 4.332031 -9.46875 3.6875 -9.46875 C 2.476562 -9.46875 1.820312 -8.238281 1.71875 -5.78125 C 1.707031 -5.425781 1.703125 -5.003906 1.703125 -4.515625 C 1.703125 -3.203125 1.84375 -2.191406 2.125 -1.484375 C 2.457031 -0.648438 3.019531 -0.234375 3.8125 -0.234375 Z M 3.8125 -0.234375 "/></g></g></g><g fill="#1d1d1d" fill-opacity="1"><g transform="translate(56.541266, 14.58667)"><g><path d="M 0.921875 -6.90625 L 0.75 -6.890625 C 0.707031 -6.890625 0.6875 -6.898438 0.6875 -6.921875 C 0.6875 -7.054688 0.765625 -7.351562 0.921875 -7.8125 C 1.078125 -8.269531 1.257812 -8.609375 1.46875 -8.828125 C 2.15625 -9.535156 2.929688 -9.890625 3.796875 -9.890625 C 4.660156 -9.890625 5.351562 -9.617188 5.875 -9.078125 C 6.40625 -8.535156 6.671875 -7.851562 6.671875 -7.03125 C 6.671875 -6.207031 6.140625 -5.300781 5.078125 -4.3125 C 4.742188 -4 4.46875 -3.75 4.25 -3.5625 C 3.957031 -3.3125 3.445312 -2.832031 2.71875 -2.125 C 2 -1.425781 1.640625 -1.039062 1.640625 -0.96875 L 5.6875 -0.96875 C 6.03125 -0.96875 6.273438 -1.066406 6.421875 -1.265625 C 6.503906 -1.378906 6.613281 -1.679688 6.75 -2.171875 L 7.015625 -2.171875 L 6.71875 -0.234375 C 6.6875 -0.128906 6.628906 -0.0507812 6.546875 0 L 0.578125 0 C 0.554688 0 0.546875 -0.0625 0.546875 -0.1875 C 0.546875 -0.300781 0.65625 -0.484375 0.875 -0.734375 C 1.101562 -0.992188 1.390625 -1.296875 1.734375 -1.640625 C 2.078125 -1.992188 2.546875 -2.46875 3.140625 -3.0625 C 4.660156 -4.613281 5.421875 -5.851562 5.421875 -6.78125 C 5.421875 -7.34375 5.210938 -7.851562 4.796875 -8.3125 C 4.390625 -8.78125 3.910156 -9.015625 3.359375 -9.015625 C 2.816406 -9.015625 2.332031 -8.832031 1.90625 -8.46875 C 1.476562 -8.09375 1.191406 -7.613281 1.046875 -7.03125 C 1.023438 -6.945312 0.984375 -6.90625 0.921875 -6.90625 Z M 0.921875 -6.90625 "/></g></g></g><g fill="#1d1d1d" fill-opacity="1"><g transform="translate(64.425647, 14.58667)"><g><path d="M 6.453125 -9.875 C 6.523438 -9.875 6.5625 -9.835938 6.5625 -9.765625 C 6.5625 -9.691406 6.363281 -9.546875 5.96875 -9.328125 C 5.582031 -9.117188 5.34375 -8.984375 5.25 -8.921875 C 4.9375 -8.710938 4.625 -8.484375 4.3125 -8.234375 C 3.289062 -7.410156 2.773438 -6.738281 2.765625 -6.21875 C 2.796875 -6.21875 2.835938 -6.226562 2.890625 -6.25 C 2.941406 -6.28125 3.03125 -6.320312 3.15625 -6.375 C 3.289062 -6.425781 3.53125 -6.453125 3.875 -6.453125 C 4.21875 -6.453125 4.585938 -6.363281 4.984375 -6.1875 C 5.378906 -6.007812 5.71875 -5.773438 6 -5.484375 C 6.613281 -4.835938 6.921875 -4.050781 6.921875 -3.125 C 6.921875 -2.195312 6.609375 -1.410156 5.984375 -0.765625 C 5.359375 -0.128906 4.582031 0.1875 3.65625 0.1875 C 2.726562 0.1875 1.984375 -0.191406 1.421875 -0.953125 C 0.859375 -1.710938 0.578125 -2.59375 0.578125 -3.59375 C 0.578125 -4.851562 0.984375 -5.953125 1.796875 -6.890625 C 2.503906 -7.691406 3.710938 -8.5625 5.421875 -9.5 C 5.609375 -9.601562 5.804688 -9.691406 6.015625 -9.765625 C 6.234375 -9.835938 6.378906 -9.875 6.453125 -9.875 Z M 1.765625 -3.1875 C 1.765625 -2.4375 1.90625 -1.78125 2.1875 -1.21875 C 2.53125 -0.53125 3.035156 -0.1875 3.703125 -0.1875 C 4.378906 -0.1875 4.882812 -0.488281 5.21875 -1.09375 C 5.507812 -1.601562 5.65625 -2.21875 5.65625 -2.9375 C 5.65625 -4.351562 5.273438 -5.296875 4.515625 -5.765625 C 4.242188 -5.941406 3.921875 -6.03125 3.546875 -6.03125 C 2.878906 -6.03125 2.410156 -5.757812 2.140625 -5.21875 C 1.898438 -4.769531 1.773438 -4.117188 1.765625 -3.265625 Z M 1.765625 -3.1875 "/></g></g></g></g></g><g transform="matrix(1, 0, 0, 1, 192, 105)"><g clip-path="url(#fdbde758a1)"><g clip-path="url(#0e72a3d770)"><g fill="#1d1d1d" fill-opacity="1"><g transform="translate(0.205114, 58.308238)"><g><path d="M 54.875 16.703125 L 54.9375 16.828125 C 54.769531 16.828125 54.539062 16.742188 54.25 16.578125 C 53.988281 16.410156 53.707031 16.207031 53.40625 15.96875 C 53.113281 15.738281 52.820312 15.519531 52.53125 15.3125 C 52.40625 15.175781 52.285156 15.054688 52.171875 14.953125 C 52.066406 14.847656 51.953125 14.753906 51.828125 14.671875 C 51.441406 14.378906 51.066406 14.082031 50.703125 13.78125 C 50.347656 13.488281 50.003906 13.191406 49.671875 12.890625 C 48.910156 12.253906 48.144531 11.628906 47.375 11.015625 C 46.613281 10.398438 45.832031 9.796875 45.03125 9.203125 C 44.4375 8.742188 43.832031 8.289062 43.21875 7.84375 C 42.601562 7.394531 42 6.941406 41.40625 6.484375 C 41.238281 6.347656 41.046875 6.207031 40.828125 6.0625 C 40.617188 5.914062 40.410156 5.78125 40.203125 5.65625 C 39.773438 5.394531 39.359375 5.113281 38.953125 4.8125 C 38.554688 4.519531 38.210938 4.226562 37.921875 3.9375 C 33.390625 0.59375 29.320312 -2.09375 25.71875 -4.125 C 24.75 -4.632812 24.007812 -4.890625 23.5 -4.890625 C 22.820312 -4.890625 22.226562 -4.425781 21.71875 -3.5 C 21.425781 -2.988281 20.960938 -2.046875 20.328125 -0.671875 C 19.691406 0.703125 18.957031 2.3125 18.125 4.15625 C 17.300781 6 16.445312 7.925781 15.5625 9.9375 C 14.675781 11.945312 13.828125 13.882812 13.015625 15.75 C 12.210938 17.613281 11.515625 19.234375 10.921875 20.609375 C 10.328125 21.984375 9.90625 22.945312 9.65625 23.5 C 9.226562 24.5625 8.78125 25.628906 8.3125 26.703125 C 7.851562 27.785156 7.367188 28.859375 6.859375 29.921875 C 6.816406 30.046875 6.765625 30.171875 6.703125 30.296875 C 6.640625 30.421875 6.585938 30.546875 6.546875 30.671875 C 6.421875 30.972656 6.300781 31.25 6.1875 31.5 C 6.082031 31.757812 5.945312 32.015625 5.78125 32.265625 C 5.65625 32.472656 5.503906 32.660156 5.328125 32.828125 C 5.160156 33.003906 4.972656 33.09375 4.765625 33.09375 C 4.554688 33.09375 4.320312 33.007812 4.0625 32.84375 C 3.132812 32.332031 2.859375 31.585938 3.234375 30.609375 C 3.828125 29.128906 4.421875 27.648438 5.015625 26.171875 C 5.609375 24.691406 6.203125 23.207031 6.796875 21.71875 L 7.6875 19.5625 C 7.851562 19.132812 8.203125 18.296875 8.734375 17.046875 C 9.265625 15.804688 9.898438 14.316406 10.640625 12.578125 C 11.378906 10.835938 12.160156 9.023438 12.984375 7.140625 C 13.816406 5.253906 14.601562 3.441406 15.34375 1.703125 C 16.082031 -0.0234375 16.726562 -1.515625 17.28125 -2.765625 C 17.832031 -4.015625 18.191406 -4.847656 18.359375 -5.265625 C 18.523438 -5.609375 18.628906 -5.925781 18.671875 -6.21875 C 18.710938 -6.519531 18.648438 -6.796875 18.484375 -7.046875 C 18.234375 -7.472656 17.640625 -7.832031 16.703125 -8.125 L 15.625 -8.453125 C 14.4375 -8.785156 13.226562 -9.097656 12 -9.390625 C 10.769531 -9.691406 9.546875 -9.90625 8.328125 -10.03125 C 7.859375 -10.070312 7.390625 -10.164062 6.921875 -10.3125 C 6.453125 -10.46875 6.113281 -10.78125 5.90625 -11.25 C 5.476562 -12.132812 5.878906 -12.789062 7.109375 -13.21875 C 9.648438 -13.976562 12.03125 -14.695312 14.25 -15.375 C 16.476562 -16.050781 18.710938 -16.6875 20.953125 -17.28125 C 22.734375 -17.695312 23.941406 -18.710938 24.578125 -20.328125 C 28.046875 -28.628906 31.5625 -36.101562 35.125 -42.75 C 35.164062 -42.832031 35.269531 -42.957031 35.4375 -43.125 C 35.5625 -43.25 35.6875 -43.40625 35.8125 -43.59375 C 35.945312 -43.789062 35.992188 -44.015625 35.953125 -44.265625 C 35.828125 -44.691406 35.359375 -45.160156 34.546875 -45.671875 C 34.460938 -45.878906 34.585938 -46.160156 34.921875 -46.515625 C 35.265625 -46.878906 35.585938 -47.210938 35.890625 -47.515625 C 36.015625 -47.640625 36.140625 -47.765625 36.265625 -47.890625 C 36.390625 -48.015625 36.519531 -48.140625 36.65625 -48.265625 L 36.90625 -48.59375 C 37.113281 -48.84375 37.351562 -49.09375 37.625 -49.34375 C 37.90625 -49.601562 38.210938 -49.734375 38.546875 -49.734375 C 38.890625 -49.734375 39.253906 -49.5625 39.640625 -49.21875 C 40.140625 -48.800781 40.359375 -48.367188 40.296875 -47.921875 C 40.234375 -47.472656 40.078125 -46.976562 39.828125 -46.4375 L 39.640625 -46.046875 C 38.535156 -43.585938 37.429688 -41.128906 36.328125 -38.671875 C 35.222656 -36.222656 34.125 -33.769531 33.03125 -31.3125 L 28.90625 -22.109375 C 28.8125 -21.847656 28.710938 -21.601562 28.609375 -21.375 C 28.503906 -21.144531 28.410156 -20.898438 28.328125 -20.640625 L 27.953125 -19.5625 L 28.328125 -19.5 C 28.578125 -19.457031 28.8125 -19.4375 29.03125 -19.4375 C 29.625 -19.4375 30.078125 -19.59375 30.390625 -19.90625 C 30.710938 -20.226562 31 -20.554688 31.25 -20.890625 C 31.414062 -21.148438 31.539062 -21.34375 31.625 -21.46875 C 34.34375 -24.726562 37.273438 -27.9375 40.421875 -31.09375 C 43.578125 -34.25 47.253906 -36.925781 51.453125 -39.125 C 52.585938 -39.71875 53.789062 -40.242188 55.0625 -40.703125 C 56.332031 -41.171875 57.734375 -41.40625 59.265625 -41.40625 L 59.703125 -41.40625 C 61.734375 -41.363281 63.28125 -40.726562 64.34375 -39.5 C 65.351562 -38.28125 65.609375 -36.757812 65.109375 -34.9375 C 64.597656 -32.988281 63.6875 -31.390625 62.375 -30.140625 C 61.0625 -28.890625 59.726562 -27.796875 58.375 -26.859375 C 52.570312 -22.878906 45.457031 -20.128906 37.03125 -18.609375 C 31.613281 -17.585938 27.71875 -14.601562 25.34375 -9.65625 C 25.175781 -9.351562 25.003906 -9.039062 24.828125 -8.71875 C 24.660156 -8.40625 24.492188 -8.101562 24.328125 -7.8125 L 23.8125 -6.921875 L 24.265625 -6.609375 C 24.347656 -6.566406 24.644531 -6.382812 25.15625 -6.0625 C 25.664062 -5.75 26.25 -5.390625 26.90625 -4.984375 C 27.5625 -4.578125 28.179688 -4.179688 28.765625 -3.796875 C 29.359375 -3.421875 29.785156 -3.171875 30.046875 -3.046875 C 31.992188 -1.773438 33.941406 -0.421875 35.890625 1.015625 C 38.171875 2.671875 40.410156 4.414062 42.609375 6.25 C 44.816406 8.09375 46.976562 9.925781 49.09375 11.75 C 49.988281 12.507812 50.878906 13.269531 51.765625 14.03125 C 52.648438 14.800781 53.539062 15.566406 54.4375 16.328125 C 54.6875 16.492188 54.832031 16.617188 54.875 16.703125 Z M 21.53125 -14.546875 L 21.15625 -14.484375 C 17.59375 -13.890625 14.179688 -13 10.921875 -11.8125 L 10.296875 -11.5625 L 11.046875 -11.375 C 12.953125 -10.78125 14.507812 -10.320312 15.71875 -10 C 16.925781 -9.6875 17.867188 -9.53125 18.546875 -9.53125 C 19.609375 -9.53125 20.285156 -9.898438 20.578125 -10.640625 C 20.878906 -11.378906 21.175781 -12.53125 21.46875 -14.09375 Z M 62.9375 -39.1875 C 62.09375 -40.125 61.015625 -40.59375 59.703125 -40.59375 C 59.109375 -40.59375 58.410156 -40.503906 57.609375 -40.328125 C 54.265625 -39.441406 51.289062 -38.109375 48.6875 -36.328125 C 46.082031 -34.546875 43.71875 -32.535156 41.59375 -30.296875 C 39.476562 -28.054688 37.425781 -25.769531 35.4375 -23.4375 L 33.21875 -20.828125 L 33.984375 -20.953125 C 41.222656 -22.265625 47.53125 -24.171875 52.90625 -26.671875 C 54.769531 -27.523438 56.566406 -28.519531 58.296875 -29.65625 C 60.035156 -30.800781 61.5 -32.285156 62.6875 -34.109375 C 63.15625 -34.742188 63.535156 -35.492188 63.828125 -36.359375 C 64.128906 -37.234375 63.832031 -38.175781 62.9375 -39.1875 Z M 62.9375 -39.1875 "/></g></g></g></g></g></g><g transform="matrix(1, 0, 0, 1, 166, 133)"><g clip-path="url(#927cdc4f97)"><g fill="#1d1d1d" fill-opacity="1"><g transform="translate(1.196087, 36.926602)"><g><path d="M 23.546875 -13.25 C 23.679688 -13 23.703125 -12.828125 23.609375 -12.734375 C 23.515625 -12.640625 23.367188 -12.535156 23.171875 -12.421875 L 23.015625 -12.34375 C 21.785156 -11.6875 20.65625 -10.929688 19.625 -10.078125 C 18.601562 -9.234375 17.613281 -8.390625 16.65625 -7.546875 L 15.828125 -6.8125 C 15.367188 -6.375 15.179688 -5.976562 15.265625 -5.625 C 15.335938 -5.269531 15.675781 -4.875 16.28125 -4.4375 C 17.40625 -3.632812 18.445312 -2.851562 19.40625 -2.09375 C 19.59375 -1.925781 19.75 -1.773438 19.875 -1.640625 C 20 -1.503906 20.003906 -1.367188 19.890625 -1.234375 C 19.835938 -1.117188 19.753906 -1.0625 19.640625 -1.0625 C 19.566406 -1.0625 19.46875 -1.085938 19.34375 -1.140625 C 19.21875 -1.203125 19.097656 -1.257812 18.984375 -1.3125 C 17.429688 -2.101562 16.160156 -2.976562 15.171875 -3.9375 C 14.679688 -4.40625 14.273438 -4.640625 13.953125 -4.640625 C 13.648438 -4.640625 13.332031 -4.472656 13 -4.140625 C 12.238281 -3.398438 11.34375 -2.679688 10.3125 -1.984375 C 9.289062 -1.285156 8.066406 -0.800781 6.640625 -0.53125 C 6.335938 -0.476562 6.039062 -0.453125 5.75 -0.453125 C 5.28125 -0.453125 4.800781 -0.519531 4.3125 -0.65625 C 3.488281 -0.925781 2.910156 -1.296875 2.578125 -1.765625 C 2.253906 -2.203125 2.144531 -2.75 2.25 -3.40625 C 2.445312 -4.582031 3.007812 -5.675781 3.9375 -6.6875 C 4.644531 -7.445312 5.375 -8.222656 6.125 -9.015625 C 6.882812 -9.816406 7.671875 -10.597656 8.484375 -11.359375 C 9.066406 -11.910156 9.273438 -12.632812 9.109375 -13.53125 C 8.617188 -16.269531 8.820312 -18.695312 9.71875 -20.8125 C 10.625 -22.9375 12.101562 -24.476562 14.15625 -25.4375 C 15.332031 -25.976562 16.535156 -26.289062 17.765625 -26.375 L 18.21875 -26.375 C 18.65625 -26.375 19.207031 -26.304688 19.875 -26.171875 C 20.539062 -26.035156 21.082031 -25.691406 21.5 -25.140625 C 22.34375 -24.078125 22.488281 -22.898438 21.9375 -21.609375 C 21.53125 -20.628906 20.976562 -19.796875 20.28125 -19.109375 C 19.582031 -18.429688 18.894531 -17.816406 18.21875 -17.265625 C 17.476562 -16.660156 16.71875 -16.078125 15.9375 -15.515625 C 15.15625 -14.960938 14.382812 -14.410156 13.625 -13.859375 C 13.34375 -13.671875 13.050781 -13.46875 12.75 -13.25 C 12.457031 -13.03125 12.171875 -12.828125 11.890625 -12.640625 C 11.648438 -12.441406 11.453125 -12.238281 11.296875 -12.03125 C 11.148438 -11.832031 11.1875 -11.5 11.40625 -11.03125 C 11.457031 -10.925781 11.507812 -10.800781 11.5625 -10.65625 C 11.625 -10.519531 11.691406 -10.398438 11.765625 -10.296875 C 11.960938 -9.804688 12.191406 -9.3125 12.453125 -8.8125 C 12.710938 -8.320312 13.070312 -7.875 13.53125 -7.46875 C 13.644531 -7.382812 13.753906 -7.34375 13.859375 -7.34375 C 13.992188 -7.34375 14.109375 -7.390625 14.203125 -7.484375 C 14.304688 -7.578125 14.410156 -7.679688 14.515625 -7.796875 C 14.578125 -7.898438 14.632812 -7.96875 14.6875 -8 L 15.140625 -8.453125 C 15.878906 -9.191406 16.644531 -9.914062 17.4375 -10.625 C 18.226562 -11.332031 19.101562 -11.960938 20.0625 -12.515625 C 20.769531 -12.921875 21.519531 -13.25 22.3125 -13.5 C 22.394531 -13.519531 22.488281 -13.546875 22.59375 -13.578125 C 22.707031 -13.609375 22.816406 -13.625 22.921875 -13.625 C 23.203125 -13.625 23.410156 -13.5 23.546875 -13.25 Z M 12.75 -22.3125 C 11.03125 -20.175781 10.304688 -17.703125 10.578125 -14.890625 C 10.578125 -14.859375 10.609375 -14.734375 10.671875 -14.515625 C 10.691406 -14.378906 10.722656 -14.207031 10.765625 -14 C 10.804688 -13.800781 10.828125 -13.675781 10.828125 -13.625 L 11.03125 -13.453125 L 13.375 -15.171875 C 14.269531 -15.859375 15.15625 -16.53125 16.03125 -17.1875 C 16.90625 -17.84375 17.78125 -18.5 18.65625 -19.15625 C 19.695312 -19.976562 20.503906 -20.9375 21.078125 -22.03125 C 21.273438 -22.382812 21.382812 -22.8125 21.40625 -23.3125 C 21.4375 -23.820312 21.316406 -24.269531 21.046875 -24.65625 C 20.960938 -24.789062 20.800781 -24.945312 20.5625 -25.125 C 20.332031 -25.300781 20.015625 -25.414062 19.609375 -25.46875 C 19.410156 -25.5 19.203125 -25.515625 18.984375 -25.515625 C 18.304688 -25.515625 17.664062 -25.410156 17.0625 -25.203125 C 16.457031 -24.992188 15.976562 -24.8125 15.625 -24.65625 C 14.53125 -24.101562 13.570312 -23.320312 12.75 -22.3125 Z M 10.828125 -4.109375 C 11.453125 -4.679688 11.875 -5.132812 12.09375 -5.46875 C 12.3125 -5.8125 12.332031 -6.203125 12.15625 -6.640625 C 11.976562 -7.078125 11.628906 -7.765625 11.109375 -8.703125 C 10.972656 -8.941406 10.835938 -9.175781 10.703125 -9.40625 C 10.566406 -9.644531 10.429688 -9.898438 10.296875 -10.171875 L 9.796875 -11.15625 L 9.6875 -11.03125 C 8.445312 -10.070312 7.242188 -9.050781 6.078125 -7.96875 C 4.921875 -6.894531 4.003906 -5.609375 3.328125 -4.109375 L 3.234375 -3.890625 C 3.097656 -3.617188 2.992188 -3.316406 2.921875 -2.984375 C 2.859375 -2.660156 3.003906 -2.320312 3.359375 -1.96875 C 3.859375 -1.476562 4.460938 -1.234375 5.171875 -1.234375 C 5.410156 -1.234375 5.671875 -1.257812 5.953125 -1.3125 C 7.015625 -1.53125 7.9375 -1.898438 8.71875 -2.421875 C 9.5 -2.941406 10.203125 -3.503906 10.828125 -4.109375 Z M 10.828125 -4.109375 "/></g></g></g></g></g><g transform="matrix(1, 0, 0, 1, 122, 105)"><g clip-path="url(#12b0c4974d)"><g clip-path="url(#6aab58154f)"><g fill="#1d1d1d" fill-opacity="1"><g transform="translate(0.373694, 58.308238)"><g><path d="M 54.875 16.703125 L 54.9375 16.828125 C 54.769531 16.828125 54.539062 16.742188 54.25 16.578125 C 53.988281 16.410156 53.707031 16.207031 53.40625 15.96875 C 53.113281 15.738281 52.820312 15.519531 52.53125 15.3125 C 52.40625 15.175781 52.285156 15.054688 52.171875 14.953125 C 52.066406 14.847656 51.953125 14.753906 51.828125 14.671875 C 51.441406 14.378906 51.066406 14.082031 50.703125 13.78125 C 50.347656 13.488281 50.003906 13.191406 49.671875 12.890625 C 48.910156 12.253906 48.144531 11.628906 47.375 11.015625 C 46.613281 10.398438 45.832031 9.796875 45.03125 9.203125 C 44.4375 8.742188 43.832031 8.289062 43.21875 7.84375 C 42.601562 7.394531 42 6.941406 41.40625 6.484375 C 41.238281 6.347656 41.046875 6.207031 40.828125 6.0625 C 40.617188 5.914062 40.410156 5.78125 40.203125 5.65625 C 39.773438 5.394531 39.359375 5.113281 38.953125 4.8125 C 38.554688 4.519531 38.210938 4.226562 37.921875 3.9375 C 33.390625 0.59375 29.320312 -2.09375 25.71875 -4.125 C 24.75 -4.632812 24.007812 -4.890625 23.5 -4.890625 C 22.820312 -4.890625 22.226562 -4.425781 21.71875 -3.5 C 21.425781 -2.988281 20.960938 -2.046875 20.328125 -0.671875 C 19.691406 0.703125 18.957031 2.3125 18.125 4.15625 C 17.300781 6 16.445312 7.925781 15.5625 9.9375 C 14.675781 11.945312 13.828125 13.882812 13.015625 15.75 C 12.210938 17.613281 11.515625 19.234375 10.921875 20.609375 C 10.328125 21.984375 9.90625 22.945312 9.65625 23.5 C 9.226562 24.5625 8.78125 25.628906 8.3125 26.703125 C 7.851562 27.785156 7.367188 28.859375 6.859375 29.921875 C 6.816406 30.046875 6.765625 30.171875 6.703125 30.296875 C 6.640625 30.421875 6.585938 30.546875 6.546875 30.671875 C 6.421875 30.972656 6.300781 31.25 6.1875 31.5 C 6.082031 31.757812 5.945312 32.015625 5.78125 32.265625 C 5.65625 32.472656 5.503906 32.660156 5.328125 32.828125 C 5.160156 33.003906 4.972656 33.09375 4.765625 33.09375 C 4.554688 33.09375 4.320312 33.007812 4.0625 32.84375 C 3.132812 32.332031 2.859375 31.585938 3.234375 30.609375 C 3.828125 29.128906 4.421875 27.648438 5.015625 26.171875 C 5.609375 24.691406 6.203125 23.207031 6.796875 21.71875 L 7.6875 19.5625 C 7.851562 19.132812 8.203125 18.296875 8.734375 17.046875 C 9.265625 15.804688 9.898438 14.316406 10.640625 12.578125 C 11.378906 10.835938 12.160156 9.023438 12.984375 7.140625 C 13.816406 5.253906 14.601562 3.441406 15.34375 1.703125 C 16.082031 -0.0234375 16.726562 -1.515625 17.28125 -2.765625 C 17.832031 -4.015625 18.191406 -4.847656 18.359375 -5.265625 C 18.523438 -5.609375 18.628906 -5.925781 18.671875 -6.21875 C 18.710938 -6.519531 18.648438 -6.796875 18.484375 -7.046875 C 18.234375 -7.472656 17.640625 -7.832031 16.703125 -8.125 L 15.625 -8.453125 C 14.4375 -8.785156 13.226562 -9.097656 12 -9.390625 C 10.769531 -9.691406 9.546875 -9.90625 8.328125 -10.03125 C 7.859375 -10.070312 7.390625 -10.164062 6.921875 -10.3125 C 6.453125 -10.46875 6.113281 -10.78125 5.90625 -11.25 C 5.476562 -12.132812 5.878906 -12.789062 7.109375 -13.21875 C 9.648438 -13.976562 12.03125 -14.695312 14.25 -15.375 C 16.476562 -16.050781 18.710938 -16.6875 20.953125 -17.28125 C 22.734375 -17.695312 23.941406 -18.710938 24.578125 -20.328125 C 28.046875 -28.628906 31.5625 -36.101562 35.125 -42.75 C 35.164062 -42.832031 35.269531 -42.957031 35.4375 -43.125 C 35.5625 -43.25 35.6875 -43.40625 35.8125 -43.59375 C 35.945312 -43.789062 35.992188 -44.015625 35.953125 -44.265625 C 35.828125 -44.691406 35.359375 -45.160156 34.546875 -45.671875 C 34.460938 -45.878906 34.585938 -46.160156 34.921875 -46.515625 C 35.265625 -46.878906 35.585938 -47.210938 35.890625 -47.515625 C 36.015625 -47.640625 36.140625 -47.765625 36.265625 -47.890625 C 36.390625 -48.015625 36.519531 -48.140625 36.65625 -48.265625 L 36.90625 -48.59375 C 37.113281 -48.84375 37.351562 -49.09375 37.625 -49.34375 C 37.90625 -49.601562 38.210938 -49.734375 38.546875 -49.734375 C 38.890625 -49.734375 39.253906 -49.5625 39.640625 -49.21875 C 40.140625 -48.800781 40.359375 -48.367188 40.296875 -47.921875 C 40.234375 -47.472656 40.078125 -46.976562 39.828125 -46.4375 L 39.640625 -46.046875 C 38.535156 -43.585938 37.429688 -41.128906 36.328125 -38.671875 C 35.222656 -36.222656 34.125 -33.769531 33.03125 -31.3125 L 28.90625 -22.109375 C 28.8125 -21.847656 28.710938 -21.601562 28.609375 -21.375 C 28.503906 -21.144531 28.410156 -20.898438 28.328125 -20.640625 L 27.953125 -19.5625 L 28.328125 -19.5 C 28.578125 -19.457031 28.8125 -19.4375 29.03125 -19.4375 C 29.625 -19.4375 30.078125 -19.59375 30.390625 -19.90625 C 30.710938 -20.226562 31 -20.554688 31.25 -20.890625 C 31.414062 -21.148438 31.539062 -21.34375 31.625 -21.46875 C 34.34375 -24.726562 37.273438 -27.9375 40.421875 -31.09375 C 43.578125 -34.25 47.253906 -36.925781 51.453125 -39.125 C 52.585938 -39.71875 53.789062 -40.242188 55.0625 -40.703125 C 56.332031 -41.171875 57.734375 -41.40625 59.265625 -41.40625 L 59.703125 -41.40625 C 61.734375 -41.363281 63.28125 -40.726562 64.34375 -39.5 C 65.351562 -38.28125 65.609375 -36.757812 65.109375 -34.9375 C 64.597656 -32.988281 63.6875 -31.390625 62.375 -30.140625 C 61.0625 -28.890625 59.726562 -27.796875 58.375 -26.859375 C 52.570312 -22.878906 45.457031 -20.128906 37.03125 -18.609375 C 31.613281 -17.585938 27.71875 -14.601562 25.34375 -9.65625 C 25.175781 -9.351562 25.003906 -9.039062 24.828125 -8.71875 C 24.660156 -8.40625 24.492188 -8.101562 24.328125 -7.8125 L 23.8125 -6.921875 L 24.265625 -6.609375 C 24.347656 -6.566406 24.644531 -6.382812 25.15625 -6.0625 C 25.664062 -5.75 26.25 -5.390625 26.90625 -4.984375 C 27.5625 -4.578125 28.179688 -4.179688 28.765625 -3.796875 C 29.359375 -3.421875 29.785156 -3.171875 30.046875 -3.046875 C 31.992188 -1.773438 33.941406 -0.421875 35.890625 1.015625 C 38.171875 2.671875 40.410156 4.414062 42.609375 6.25 C 44.816406 8.09375 46.976562 9.925781 49.09375 11.75 C 49.988281 12.507812 50.878906 13.269531 51.765625 14.03125 C 52.648438 14.800781 53.539062 15.566406 54.4375 16.328125 C 54.6875 16.492188 54.832031 16.617188 54.875 16.703125 Z M 21.53125 -14.546875 L 21.15625 -14.484375 C 17.59375 -13.890625 14.179688 -13 10.921875 -11.8125 L 10.296875 -11.5625 L 11.046875 -11.375 C 12.953125 -10.78125 14.507812 -10.320312 15.71875 -10 C 16.925781 -9.6875 17.867188 -9.53125 18.546875 -9.53125 C 19.609375 -9.53125 20.285156 -9.898438 20.578125 -10.640625 C 20.878906 -11.378906 21.175781 -12.53125 21.46875 -14.09375 Z M 62.9375 -39.1875 C 62.09375 -40.125 61.015625 -40.59375 59.703125 -40.59375 C 59.109375 -40.59375 58.410156 -40.503906 57.609375 -40.328125 C 54.265625 -39.441406 51.289062 -38.109375 48.6875 -36.328125 C 46.082031 -34.546875 43.71875 -32.535156 41.59375 -30.296875 C 39.476562 -28.054688 37.425781 -25.769531 35.4375 -23.4375 L 33.21875 -20.828125 L 33.984375 -20.953125 C 41.222656 -22.265625 47.53125 -24.171875 52.90625 -26.671875 C 54.769531 -27.523438 56.566406 -28.519531 58.296875 -29.65625 C 60.035156 -30.800781 61.5 -32.285156 62.6875 -34.109375 C 63.15625 -34.742188 63.535156 -35.492188 63.828125 -36.359375 C 64.128906 -37.234375 63.832031 -38.175781 62.9375 -39.1875 Z M 62.9375 -39.1875 "/></g></g></g></g></g></g></svg>