<svg xmlns="http://www.w3.org/2000/svg" xmlns:xlink="http://www.w3.org/1999/xlink" width="500" zoomAndPan="magnify" viewBox="0 0 375 374.999991" height="500" preserveAspectRatio="xMidYMid meet" version="1.0"><defs><g/><clipPath id="1d98782c53"><path d="M 0 0 L 375 0 L 375 374.976562 L 0 374.976562 Z M 0 0 " clip-rule="nonzero"/></clipPath><clipPath id="3cbf2fec8d"><path d="M 375 55.5 L 375 319.476562 C 375 334.195312 369.152344 348.3125 358.746094 358.722656 C 348.335938 369.128906 334.21875 374.976562 319.5 374.976562 L 55.5 374.976562 C 40.78125 374.976562 26.664062 369.128906 16.253906 358.722656 C 5.847656 348.3125 0 334.195312 0 319.476562 L 0 55.5 C 0 24.847656 24.847656 0 55.5 0 L 319.5 0 C 334.21875 0 348.335938 5.847656 358.746094 16.253906 C 369.152344 26.664062 375 40.78125 375 55.5 Z M 375 55.5 " clip-rule="nonzero"/></clipPath><clipPath id="dc59bd3b40"><path d="M 0 0 L 375 0 L 375 374.976562 L 0 374.976562 Z M 0 0 " clip-rule="nonzero"/></clipPath><clipPath id="d4d5035cd7"><path d="M 375 55.5 L 375 319.476562 C 375 334.195312 369.152344 348.3125 358.746094 358.722656 C 348.335938 369.128906 334.21875 374.976562 319.5 374.976562 L 55.5 374.976562 C 40.78125 374.976562 26.664062 369.128906 16.253906 358.722656 C 5.847656 348.3125 0 334.195312 0 319.476562 L 0 55.5 C 0 24.847656 24.847656 0 55.5 0 L 319.5 0 C 334.21875 0 348.335938 5.847656 358.746094 16.253906 C 369.152344 26.664062 375 40.78125 375 55.5 Z M 375 55.5 " clip-rule="nonzero"/></clipPath><clipPath id="8c2c8b2a14"><rect x="0" width="375" y="0" height="375"/></clipPath><clipPath id="9824d5966d"><path d="M 268 101 L 375 101 L 375 125 L 268 125 Z M 268 101 " clip-rule="nonzero"/></clipPath><clipPath id="da1de2fbf7"><path d="M 269.308594 101.988281 L 388.53125 104.527344 L 388.101562 124.773438 L 268.878906 122.234375 Z M 269.308594 101.988281 " clip-rule="nonzero"/></clipPath><clipPath id="0e210b0ef8"><path d="M 0.800781 2 L 107 2 L 107 23 L 0.800781 23 Z M 0.800781 2 " clip-rule="nonzero"/></clipPath><clipPath id="79cd4166e0"><path d="M 1.308594 0.988281 L 120.53125 3.527344 L 120.101562 23.773438 L 0.878906 21.234375 Z M 1.308594 0.988281 " clip-rule="nonzero"/></clipPath><clipPath id="573aed996b"><path d="M 120.292969 24.128906 L -7.925781 21.398438 L -7.449219 -1.097656 L 120.773438 1.632812 Z M 120.292969 24.128906 " clip-rule="nonzero"/></clipPath><clipPath id="5117963301"><rect x="0" width="107" y="0" height="24"/></clipPath><clipPath id="82589d99b4"><path d="M 0 110 L 117 110 L 117 133 L 0 133 Z M 0 110 " clip-rule="nonzero"/></clipPath><clipPath id="490deaa672"><path d="M 115.707031 132.980469 L -5.019531 130.605469 L -4.609375 109.609375 L 116.117188 111.984375 Z M 115.707031 132.980469 " clip-rule="nonzero"/></clipPath><clipPath id="c19b9478a6"><path d="M 0 1 L 116.160156 1 L 116.160156 23 L 0 23 Z M 0 1 " clip-rule="nonzero"/></clipPath><clipPath id="fce5cc450c"><path d="M 115.707031 22.980469 L -5.019531 20.605469 L -4.609375 -0.390625 L 116.117188 1.984375 Z M 115.707031 22.980469 " clip-rule="nonzero"/></clipPath><clipPath id="decdba7352"><path d="M -4.460938 -0.191406 L 125.265625 2.363281 L 124.824219 24.859375 L -4.902344 22.304688 Z M -4.460938 -0.191406 " clip-rule="nonzero"/></clipPath><clipPath id="0cf69d1b3a"><rect x="0" width="117" y="0" height="23"/></clipPath></defs><g clip-path="url(#1d98782c53)"><g clip-path="url(#3cbf2fec8d)"><g transform="matrix(1, 0, 0, 1, 0, 0)"><g clip-path="url(#8c2c8b2a14)"><g clip-path="url(#dc59bd3b40)"><g clip-path="url(#d4d5035cd7)"><path fill="#f2f1ee" d="M 0 0 L 374.976562 0 L 374.976562 374.976562 L 0 374.976562 Z M 0 0 " fill-opacity="1" fill-rule="nonzero"/></g></g></g></g></g></g><g clip-path="url(#9824d5966d)"><g clip-path="url(#da1de2fbf7)"><g transform="matrix(1, 0, 0, 1, 268, 101)"><g clip-path="url(#5117963301)"><g clip-path="url(#0e210b0ef8)"><g clip-path="url(#79cd4166e0)"><g clip-path="url(#573aed996b)"><path fill="#1d1d1d" d="M 120.351562 2.042969 C 118.703125 10.195312 111.332031 15.683594 103.867188 18.285156 C 94.847656 21.429688 85.023438 21.085938 75.753906 19.296875 C 65.890625 17.394531 56.492188 13.769531 46.972656 10.667969 C 37.988281 7.742188 28.753906 5.234375 19.242188 5.140625 C 10.894531 5.0625 2.277344 6.785156 -4.769531 11.460938 C -5.648438 12.046875 -6.5 12.679688 -7.316406 13.34375 C -7.417969 13.425781 -7.335938 14.160156 -7.335938 14.292969 C -7.339844 14.425781 -7.246094 15.164062 -7.359375 15.242188 C -0.757812 9.867188 7.671875 7.472656 16.078125 7.085938 C 25.398438 6.65625 34.535156 8.703125 43.386719 11.429688 C 53.027344 14.398438 62.433594 18.167969 72.273438 20.453125 C 81.476562 22.585938 91.257812 23.511719 100.515625 21.160156 C 108.28125 19.191406 116.386719 14.582031 119.46875 6.757812 C 119.828125 5.835938 120.101562 4.886719 120.289062 3.914062 C 120.410156 3.300781 120.207031 2.625 120.328125 2.019531 Z M 120.351562 2.042969 " fill-opacity="1" fill-rule="nonzero"/></g></g></g></g></g></g></g><g clip-path="url(#82589d99b4)"><g clip-path="url(#490deaa672)"><g transform="matrix(1, 0, 0, 1, 0, 110)"><g clip-path="url(#0cf69d1b3a)"><g clip-path="url(#c19b9478a6)"><g clip-path="url(#fce5cc450c)"><g clip-path="url(#decdba7352)"><path fill="#1d1d1d" d="M -4.472656 22.105469 C -2.824219 13.875 4.613281 8.320312 12.144531 5.683594 C 21.242188 2.492188 31.160156 2.824219 40.523438 4.617188 C 50.480469 6.519531 59.976562 10.164062 69.59375 13.28125 C 78.667969 16.21875 87.992188 18.738281 97.59375 18.816406 C 106.023438 18.882812 114.71875 17.128906 121.824219 12.394531 C 122.714844 11.800781 123.570312 11.164062 124.394531 10.492188 C 124.496094 10.410156 124.410156 9.667969 124.414062 9.53125 C 124.417969 9.398438 124.320312 8.652344 124.433594 8.574219 C 117.777344 14.011719 109.273438 16.441406 100.789062 16.847656 C 91.378906 17.292969 82.148438 15.242188 73.210938 12.507812 C 63.472656 9.523438 53.972656 5.734375 44.035156 3.445312 C 34.738281 1.300781 24.863281 0.382812 15.519531 2.773438 C 7.6875 4.773438 -0.492188 9.441406 -3.589844 17.34375 C -3.949219 18.277344 -4.222656 19.234375 -4.414062 20.214844 C -4.535156 20.835938 -4.328125 21.515625 -4.449219 22.132812 Z M -4.472656 22.105469 " fill-opacity="1" fill-rule="nonzero"/></g></g></g></g></g></g></g><g fill="#1d1d1d" fill-opacity="1"><g transform="translate(5.050785, 245.013822)"><g><path d="M 31.4375 0.390625 C 30.019531 0.390625 28.894531 0.046875 28.0625 -0.640625 C 27.238281 -1.335938 26.519531 -2.347656 25.90625 -3.671875 C 25.289062 -5.003906 24.570312 -6.644531 23.75 -8.59375 C 22.925781 -10.539062 22.234375 -12.242188 21.671875 -13.703125 C 21.109375 -15.160156 20.5 -16.375 19.84375 -17.34375 C 19.1875 -18.320312 18.351562 -19.050781 17.34375 -19.53125 C 16.332031 -20.019531 14.988281 -20.265625 13.3125 -20.265625 L 9.71875 -20.265625 L 9.71875 -7.125 C 9.71875 -4.84375 9.875 -3.269531 10.1875 -2.40625 C 10.507812 -1.550781 11.097656 -0.992188 11.953125 -0.734375 L 11.953125 0 L 2.859375 0 L 2.859375 -0.734375 C 3.722656 -0.992188 4.3125 -1.550781 4.625 -2.40625 C 4.945312 -3.269531 5.109375 -4.84375 5.109375 -7.125 L 5.109375 -32.171875 C 5.109375 -34.492188 4.945312 -36.070312 4.625 -36.90625 C 4.3125 -37.75 3.722656 -38.300781 2.859375 -38.5625 L 2.859375 -39.296875 L 13.921875 -39.296875 C 17.742188 -39.296875 20.71875 -38.910156 22.84375 -38.140625 C 24.976562 -37.378906 26.484375 -36.34375 27.359375 -35.03125 C 28.242188 -33.71875 28.6875 -32.222656 28.6875 -30.546875 C 28.6875 -27.921875 27.75 -25.679688 25.875 -23.828125 C 24.007812 -21.972656 21.242188 -20.84375 17.578125 -20.4375 C 19.296875 -20.207031 20.695312 -19.820312 21.78125 -19.28125 C 22.863281 -18.738281 23.757812 -18.007812 24.46875 -17.09375 C 25.1875 -16.175781 25.828125 -15.0625 26.390625 -13.75 C 26.953125 -12.445312 27.566406 -10.929688 28.234375 -9.203125 C 29.140625 -6.960938 29.898438 -5.222656 30.515625 -3.984375 C 31.128906 -2.753906 31.695312 -1.882812 32.21875 -1.375 C 32.75 -0.875 33.332031 -0.625 33.96875 -0.625 C 34.15625 -0.625 34.3125 -0.625 34.4375 -0.625 C 34.570312 -0.625 34.710938 -0.640625 34.859375 -0.671875 L 34.859375 0 C 34.453125 0.144531 33.921875 0.242188 33.265625 0.296875 C 32.609375 0.359375 32 0.390625 31.4375 0.390625 Z M 9.71875 -21.109375 L 14.421875 -21.109375 C 17.640625 -21.109375 20.023438 -21.863281 21.578125 -23.375 C 23.140625 -24.894531 23.921875 -26.851562 23.921875 -29.25 C 23.921875 -30.9375 23.535156 -32.472656 22.765625 -33.859375 C 21.992188 -35.242188 20.753906 -36.351562 19.046875 -37.1875 C 17.347656 -38.03125 15.113281 -38.453125 12.34375 -38.453125 C 11.9375 -38.453125 11.507812 -38.441406 11.0625 -38.421875 C 10.613281 -38.410156 10.164062 -38.382812 9.71875 -38.34375 Z M 9.71875 -21.109375 "/></g></g></g><g fill="#1d1d1d" fill-opacity="1"><g transform="translate(39.411234, 245.013822)"><g><path d="M 1.515625 0 L 1.515625 -0.734375 C 2.378906 -0.992188 2.96875 -1.550781 3.28125 -2.40625 C 3.601562 -3.269531 3.765625 -4.84375 3.765625 -7.125 L 3.765625 -36.890625 C 3.765625 -38.191406 3.675781 -39.171875 3.5 -39.828125 C 3.332031 -40.484375 3.085938 -40.960938 2.765625 -41.265625 C 2.453125 -41.566406 2.035156 -41.828125 1.515625 -42.046875 L 1.515625 -42.671875 L 7.640625 -45.359375 L 8.140625 -44.96875 L 8.140625 -23.296875 C 9.785156 -24.609375 11.632812 -25.796875 13.6875 -26.859375 C 15.75 -27.929688 17.867188 -28.46875 20.046875 -28.46875 C 22.816406 -28.46875 24.984375 -27.660156 26.546875 -26.046875 C 28.117188 -24.441406 28.90625 -21.988281 28.90625 -18.6875 L 28.90625 -7.125 C 28.90625 -4.84375 29.0625 -3.269531 29.375 -2.40625 C 29.695312 -1.550781 30.289062 -0.992188 31.15625 -0.734375 L 31.15625 0 L 22.28125 0 L 22.28125 -0.734375 C 23.144531 -0.992188 23.734375 -1.550781 24.046875 -2.40625 C 24.367188 -3.269531 24.53125 -4.84375 24.53125 -7.125 L 24.53125 -17.578125 C 24.53125 -20.492188 23.910156 -22.726562 22.671875 -24.28125 C 21.441406 -25.832031 19.59375 -26.609375 17.125 -26.609375 C 15.59375 -26.609375 14.066406 -26.207031 12.546875 -25.40625 C 11.035156 -24.601562 9.566406 -23.601562 8.140625 -22.40625 L 8.140625 -7.125 C 8.140625 -4.84375 8.296875 -3.269531 8.609375 -2.40625 C 8.929688 -1.550781 9.523438 -0.992188 10.390625 -0.734375 L 10.390625 0 Z M 1.515625 0 "/></g></g></g><g fill="#1d1d1d" fill-opacity="1"><g transform="translate(71.918918, 245.013822)"><g><path d="M 1.796875 0 L 1.796875 -0.734375 C 2.660156 -0.992188 3.25 -1.550781 3.5625 -2.40625 C 3.882812 -3.269531 4.046875 -4.84375 4.046875 -7.125 L 4.046875 -20.046875 C 4.046875 -21.347656 3.96875 -22.328125 3.8125 -22.984375 C 3.664062 -23.640625 3.421875 -24.117188 3.078125 -24.421875 C 2.742188 -24.722656 2.316406 -24.984375 1.796875 -25.203125 L 1.796875 -25.828125 L 7.96875 -28.515625 L 8.421875 -28.125 L 8.421875 -7.125 C 8.421875 -4.84375 8.585938 -3.269531 8.921875 -2.40625 C 9.265625 -1.550781 9.847656 -0.992188 10.671875 -0.734375 L 10.671875 0 Z M 2.8125 -35.03125 C 2.8125 -35.925781 3.109375 -36.671875 3.703125 -37.265625 C 4.304688 -37.867188 5.035156 -38.171875 5.890625 -38.171875 C 6.785156 -38.171875 7.523438 -37.867188 8.109375 -37.265625 C 8.691406 -36.671875 8.984375 -35.925781 8.984375 -35.03125 C 8.984375 -34.207031 8.679688 -33.484375 8.078125 -32.859375 C 7.484375 -32.242188 6.753906 -31.9375 5.890625 -31.9375 C 5.035156 -31.9375 4.304688 -32.242188 3.703125 -32.859375 C 3.109375 -33.484375 2.8125 -34.207031 2.8125 -35.03125 Z M 2.8125 -35.03125 "/></g></g></g><g fill="#1d1d1d" fill-opacity="1"><g transform="translate(84.551432, 245.013822)"><g/></g></g><g fill="#1d1d1d" fill-opacity="1"><g transform="translate(96.341787, 245.013822)"><g><path d="M 35.375 0.390625 C 34.507812 0.390625 33.445312 0.046875 32.1875 -0.640625 C 30.9375 -1.335938 29.597656 -2.273438 28.171875 -3.453125 C 26.753906 -4.628906 25.316406 -5.929688 23.859375 -7.359375 C 22.515625 -4.804688 20.878906 -2.847656 18.953125 -1.484375 C 17.023438 -0.117188 14.914062 0.5625 12.625 0.5625 C 10.457031 0.5625 8.539062 0.0546875 6.875 -0.953125 C 5.207031 -1.960938 3.914062 -3.289062 3 -4.9375 C 2.082031 -6.582031 1.625 -8.378906 1.625 -10.328125 C 1.625 -12.835938 2.4375 -15.128906 4.0625 -17.203125 C 5.695312 -19.285156 8.21875 -20.90625 11.625 -22.0625 C 10.757812 -23.488281 10.066406 -24.875 9.546875 -26.21875 C 9.023438 -27.5625 8.765625 -28.910156 8.765625 -30.265625 C 8.765625 -31.648438 9.15625 -33.070312 9.9375 -34.53125 C 10.71875 -35.988281 11.988281 -37.210938 13.75 -38.203125 C 15.507812 -39.191406 17.847656 -39.6875 20.765625 -39.6875 C 21.859375 -39.6875 23.125 -39.566406 24.5625 -39.328125 C 26 -39.085938 27.335938 -38.609375 28.578125 -37.890625 L 29.1875 -31.375 L 28.6875 -31.265625 C 27.789062 -33.367188 26.796875 -34.941406 25.703125 -35.984375 C 24.617188 -37.035156 23.515625 -37.738281 22.390625 -38.09375 C 21.273438 -38.445312 20.175781 -38.625 19.09375 -38.625 C 17.550781 -38.625 16.289062 -38.304688 15.3125 -37.671875 C 14.34375 -37.035156 13.632812 -36.25 13.1875 -35.3125 C 12.738281 -34.375 12.515625 -33.457031 12.515625 -32.5625 C 12.515625 -31.03125 12.960938 -29.375 13.859375 -27.59375 C 14.765625 -25.8125 15.878906 -24.039062 17.203125 -22.28125 C 18.535156 -20.53125 19.859375 -18.882812 21.171875 -17.34375 C 22.816406 -15.4375 24.515625 -13.570312 26.265625 -11.75 C 28.023438 -9.9375 29.726562 -8.3125 31.375 -6.875 C 33.03125 -5.4375 34.539062 -4.285156 35.90625 -3.421875 C 37.269531 -2.566406 38.382812 -2.140625 39.25 -2.140625 C 40.144531 -2.140625 40.816406 -2.566406 41.265625 -3.421875 C 41.710938 -4.285156 42.019531 -5.390625 42.1875 -6.734375 C 42.351562 -8.085938 42.4375 -9.492188 42.4375 -10.953125 C 42.4375 -12.066406 42.296875 -13.296875 42.015625 -14.640625 C 41.734375 -15.992188 41.367188 -17.203125 40.921875 -18.265625 C 40.472656 -19.335938 39.953125 -19.96875 39.359375 -20.15625 L 27.0625 -20.15625 L 27.34375 -20.9375 L 47.609375 -20.9375 L 47.328125 -20.15625 L 40.8125 -20.15625 C 42.382812 -19.445312 43.644531 -18.34375 44.59375 -16.84375 C 45.550781 -15.34375 46.03125 -13.710938 46.03125 -11.953125 C 46.03125 -10.378906 45.703125 -8.851562 45.046875 -7.375 C 44.398438 -5.90625 43.539062 -4.578125 42.46875 -3.390625 C 41.40625 -2.210938 40.253906 -1.285156 39.015625 -0.609375 C 37.785156 0.0546875 36.570312 0.390625 35.375 0.390625 Z M 5.5625 -12.34375 C 5.5625 -10.738281 5.925781 -9.175781 6.65625 -7.65625 C 7.382812 -6.144531 8.445312 -4.898438 9.84375 -3.921875 C 11.25 -2.953125 12.925781 -2.46875 14.875 -2.46875 C 16.332031 -2.46875 17.835938 -2.9375 19.390625 -3.875 C 20.941406 -4.8125 22.242188 -6.160156 23.296875 -7.921875 C 22.328125 -8.890625 21.363281 -9.90625 20.40625 -10.96875 C 19.445312 -12.039062 18.539062 -13.097656 17.6875 -14.140625 C 16.601562 -15.453125 15.570312 -16.71875 14.59375 -17.9375 C 13.625 -19.15625 12.765625 -20.34375 12.015625 -21.5 C 9.503906 -20.53125 7.800781 -19.203125 6.90625 -17.515625 C 6.007812 -15.828125 5.5625 -14.101562 5.5625 -12.34375 Z M 5.5625 -12.34375 "/></g></g></g><g fill="#1d1d1d" fill-opacity="1"><g transform="translate(144.457655, 245.013822)"><g/></g></g><g fill="#1d1d1d" fill-opacity="1"><g transform="translate(156.24801, 245.013822)"><g><path d="M 31.4375 0.390625 C 30.019531 0.390625 28.894531 0.046875 28.0625 -0.640625 C 27.238281 -1.335938 26.519531 -2.347656 25.90625 -3.671875 C 25.289062 -5.003906 24.570312 -6.644531 23.75 -8.59375 C 22.925781 -10.539062 22.234375 -12.242188 21.671875 -13.703125 C 21.109375 -15.160156 20.5 -16.375 19.84375 -17.34375 C 19.1875 -18.320312 18.351562 -19.050781 17.34375 -19.53125 C 16.332031 -20.019531 14.988281 -20.265625 13.3125 -20.265625 L 9.71875 -20.265625 L 9.71875 -7.125 C 9.71875 -4.84375 9.875 -3.269531 10.1875 -2.40625 C 10.507812 -1.550781 11.097656 -0.992188 11.953125 -0.734375 L 11.953125 0 L 2.859375 0 L 2.859375 -0.734375 C 3.722656 -0.992188 4.3125 -1.550781 4.625 -2.40625 C 4.945312 -3.269531 5.109375 -4.84375 5.109375 -7.125 L 5.109375 -32.171875 C 5.109375 -34.492188 4.945312 -36.070312 4.625 -36.90625 C 4.3125 -37.75 3.722656 -38.300781 2.859375 -38.5625 L 2.859375 -39.296875 L 13.921875 -39.296875 C 17.742188 -39.296875 20.71875 -38.910156 22.84375 -38.140625 C 24.976562 -37.378906 26.484375 -36.34375 27.359375 -35.03125 C 28.242188 -33.71875 28.6875 -32.222656 28.6875 -30.546875 C 28.6875 -27.921875 27.75 -25.679688 25.875 -23.828125 C 24.007812 -21.972656 21.242188 -20.84375 17.578125 -20.4375 C 19.296875 -20.207031 20.695312 -19.820312 21.78125 -19.28125 C 22.863281 -18.738281 23.757812 -18.007812 24.46875 -17.09375 C 25.1875 -16.175781 25.828125 -15.0625 26.390625 -13.75 C 26.953125 -12.445312 27.566406 -10.929688 28.234375 -9.203125 C 29.140625 -6.960938 29.898438 -5.222656 30.515625 -3.984375 C 31.128906 -2.753906 31.695312 -1.882812 32.21875 -1.375 C 32.75 -0.875 33.332031 -0.625 33.96875 -0.625 C 34.15625 -0.625 34.3125 -0.625 34.4375 -0.625 C 34.570312 -0.625 34.710938 -0.640625 34.859375 -0.671875 L 34.859375 0 C 34.453125 0.144531 33.921875 0.242188 33.265625 0.296875 C 32.609375 0.359375 32 0.390625 31.4375 0.390625 Z M 9.71875 -21.109375 L 14.421875 -21.109375 C 17.640625 -21.109375 20.023438 -21.863281 21.578125 -23.375 C 23.140625 -24.894531 23.921875 -26.851562 23.921875 -29.25 C 23.921875 -30.9375 23.535156 -32.472656 22.765625 -33.859375 C 21.992188 -35.242188 20.753906 -36.351562 19.046875 -37.1875 C 17.347656 -38.03125 15.113281 -38.453125 12.34375 -38.453125 C 11.9375 -38.453125 11.507812 -38.441406 11.0625 -38.421875 C 10.613281 -38.410156 10.164062 -38.382812 9.71875 -38.34375 Z M 9.71875 -21.109375 "/></g></g></g><g fill="#1d1d1d" fill-opacity="1"><g transform="translate(190.608458, 245.013822)"><g><path d="M 23.515625 0 C 22.398438 0 21.84375 -0.5625 21.84375 -1.6875 L 21.84375 -11.796875 C 21.28125 -9.503906 20.398438 -7.421875 19.203125 -5.546875 C 18.003906 -3.679688 16.609375 -2.195312 15.015625 -1.09375 C 13.421875 0.0078125 11.691406 0.5625 9.828125 0.5625 C 8.441406 0.5625 7.148438 0.28125 5.953125 -0.28125 C 4.753906 -0.84375 3.789062 -1.664062 3.0625 -2.75 C 2.332031 -3.832031 1.96875 -5.179688 1.96875 -6.796875 C 1.96875 -8.742188 2.546875 -10.332031 3.703125 -11.5625 C 4.867188 -12.800781 6.414062 -13.8125 8.34375 -14.59375 C 10.269531 -15.382812 12.335938 -16.078125 14.546875 -16.671875 L 21.84375 -18.640625 C 21.6875 -21.367188 20.9375 -23.378906 19.59375 -24.671875 C 18.25 -25.960938 16.378906 -26.609375 13.984375 -26.609375 C 12.296875 -26.609375 10.65625 -26.207031 9.0625 -25.40625 C 7.476562 -24.601562 5.972656 -23.335938 4.546875 -21.609375 L 4.046875 -22.0625 C 5.648438 -24.039062 7.472656 -25.601562 9.515625 -26.75 C 11.554688 -27.894531 13.789062 -28.46875 16.21875 -28.46875 C 19.625 -28.46875 22.128906 -27.578125 23.734375 -25.796875 C 25.347656 -24.015625 26.15625 -21.535156 26.15625 -18.359375 L 26.15625 -7.125 C 26.15625 -4.84375 26.3125 -3.269531 26.625 -2.40625 C 26.945312 -1.550781 27.539062 -0.992188 28.40625 -0.734375 L 28.40625 0 Z M 6.171875 -8.359375 C 6.171875 -6.523438 6.722656 -5.128906 7.828125 -4.171875 C 8.929688 -3.222656 10.289062 -2.75 11.90625 -2.75 C 13.394531 -2.75 14.75 -3.171875 15.96875 -4.015625 C 17.1875 -4.859375 18.222656 -5.953125 19.078125 -7.296875 C 19.941406 -8.640625 20.617188 -10.097656 21.109375 -11.671875 C 21.597656 -13.242188 21.84375 -14.757812 21.84375 -16.21875 L 21.84375 -17.90625 L 14.765625 -16 C 13.378906 -15.625 12.019531 -15.128906 10.6875 -14.515625 C 9.363281 -13.898438 8.28125 -13.101562 7.4375 -12.125 C 6.59375 -11.15625 6.171875 -9.898438 6.171875 -8.359375 Z M 6.171875 -8.359375 "/></g></g></g><g fill="#1d1d1d" fill-opacity="1"><g transform="translate(220.365063, 245.013822)"><g><path d="M 12.6875 0.5 C 10.4375 0.5 8.40625 0.222656 6.59375 -0.328125 C 4.78125 -0.890625 3.40625 -1.472656 2.46875 -2.078125 L 1.96875 -8.875 L 2.46875 -8.984375 C 3.664062 -6.328125 5.238281 -4.238281 7.1875 -2.71875 C 9.132812 -1.207031 11.378906 -0.429688 13.921875 -0.390625 C 15.679688 -0.390625 17.128906 -0.863281 18.265625 -1.8125 C 19.410156 -2.769531 19.984375 -4.035156 19.984375 -5.609375 C 19.984375 -6.960938 19.597656 -8.050781 18.828125 -8.875 C 18.066406 -9.695312 17.054688 -10.367188 15.796875 -10.890625 C 14.546875 -11.410156 13.191406 -11.894531 11.734375 -12.34375 C 9.972656 -12.90625 8.398438 -13.492188 7.015625 -14.109375 C 5.628906 -14.734375 4.539062 -15.550781 3.75 -16.5625 C 2.96875 -17.570312 2.578125 -18.921875 2.578125 -20.609375 C 2.578125 -22.816406 3.46875 -24.675781 5.25 -26.1875 C 7.03125 -27.707031 9.546875 -28.46875 12.796875 -28.46875 C 14.628906 -28.46875 16.320312 -28.304688 17.875 -27.984375 C 19.425781 -27.671875 20.632812 -27.328125 21.5 -26.953125 L 21.71875 -21.21875 L 21.171875 -21.109375 C 20.265625 -23.128906 18.96875 -24.738281 17.28125 -25.9375 C 15.601562 -27.132812 13.773438 -27.734375 11.796875 -27.734375 C 9.878906 -27.734375 8.347656 -27.300781 7.203125 -26.4375 C 6.066406 -25.582031 5.5 -24.441406 5.5 -23.015625 C 5.5 -21.859375 5.863281 -20.882812 6.59375 -20.09375 C 7.320312 -19.3125 8.296875 -18.648438 9.515625 -18.109375 C 10.734375 -17.566406 12.070312 -17.050781 13.53125 -16.5625 C 14.613281 -16.226562 15.707031 -15.863281 16.8125 -15.46875 C 17.914062 -15.070312 18.925781 -14.582031 19.84375 -14 C 20.757812 -13.425781 21.507812 -12.679688 22.09375 -11.765625 C 22.675781 -10.847656 22.96875 -9.675781 22.96875 -8.25 C 22.96875 -6.675781 22.582031 -5.222656 21.8125 -3.890625 C 21.039062 -2.566406 19.890625 -1.507812 18.359375 -0.71875 C 16.828125 0.0625 14.9375 0.46875 12.6875 0.5 Z M 12.6875 0.5 "/></g></g></g><g fill="#1d1d1d" fill-opacity="1"><g transform="translate(245.349367, 245.013822)"><g><path d="M 1.515625 0 L 1.515625 -0.734375 C 2.378906 -0.992188 2.96875 -1.550781 3.28125 -2.40625 C 3.601562 -3.269531 3.765625 -4.84375 3.765625 -7.125 L 3.765625 -36.890625 C 3.765625 -38.191406 3.675781 -39.171875 3.5 -39.828125 C 3.332031 -40.484375 3.085938 -40.960938 2.765625 -41.265625 C 2.453125 -41.566406 2.035156 -41.828125 1.515625 -42.046875 L 1.515625 -42.671875 L 7.640625 -45.359375 L 8.140625 -44.96875 L 8.140625 -23.296875 C 9.785156 -24.609375 11.632812 -25.796875 13.6875 -26.859375 C 15.75 -27.929688 17.867188 -28.46875 20.046875 -28.46875 C 22.816406 -28.46875 24.984375 -27.660156 26.546875 -26.046875 C 28.117188 -24.441406 28.90625 -21.988281 28.90625 -18.6875 L 28.90625 -7.125 C 28.90625 -4.84375 29.0625 -3.269531 29.375 -2.40625 C 29.695312 -1.550781 30.289062 -0.992188 31.15625 -0.734375 L 31.15625 0 L 22.28125 0 L 22.28125 -0.734375 C 23.144531 -0.992188 23.734375 -1.550781 24.046875 -2.40625 C 24.367188 -3.269531 24.53125 -4.84375 24.53125 -7.125 L 24.53125 -17.578125 C 24.53125 -20.492188 23.910156 -22.726562 22.671875 -24.28125 C 21.441406 -25.832031 19.59375 -26.609375 17.125 -26.609375 C 15.59375 -26.609375 14.066406 -26.207031 12.546875 -25.40625 C 11.035156 -24.601562 9.566406 -23.601562 8.140625 -22.40625 L 8.140625 -7.125 C 8.140625 -4.84375 8.296875 -3.269531 8.609375 -2.40625 C 8.929688 -1.550781 9.523438 -0.992188 10.390625 -0.734375 L 10.390625 0 Z M 1.515625 0 "/></g></g></g><g fill="#1d1d1d" fill-opacity="1"><g transform="translate(277.857063, 245.013822)"><g><path d="M 23.515625 0 C 22.398438 0 21.84375 -0.5625 21.84375 -1.6875 L 21.84375 -11.796875 C 21.28125 -9.503906 20.398438 -7.421875 19.203125 -5.546875 C 18.003906 -3.679688 16.609375 -2.195312 15.015625 -1.09375 C 13.421875 0.0078125 11.691406 0.5625 9.828125 0.5625 C 8.441406 0.5625 7.148438 0.28125 5.953125 -0.28125 C 4.753906 -0.84375 3.789062 -1.664062 3.0625 -2.75 C 2.332031 -3.832031 1.96875 -5.179688 1.96875 -6.796875 C 1.96875 -8.742188 2.546875 -10.332031 3.703125 -11.5625 C 4.867188 -12.800781 6.414062 -13.8125 8.34375 -14.59375 C 10.269531 -15.382812 12.335938 -16.078125 14.546875 -16.671875 L 21.84375 -18.640625 C 21.6875 -21.367188 20.9375 -23.378906 19.59375 -24.671875 C 18.25 -25.960938 16.378906 -26.609375 13.984375 -26.609375 C 12.296875 -26.609375 10.65625 -26.207031 9.0625 -25.40625 C 7.476562 -24.601562 5.972656 -23.335938 4.546875 -21.609375 L 4.046875 -22.0625 C 5.648438 -24.039062 7.472656 -25.601562 9.515625 -26.75 C 11.554688 -27.894531 13.789062 -28.46875 16.21875 -28.46875 C 19.625 -28.46875 22.128906 -27.578125 23.734375 -25.796875 C 25.347656 -24.015625 26.15625 -21.535156 26.15625 -18.359375 L 26.15625 -7.125 C 26.15625 -4.84375 26.3125 -3.269531 26.625 -2.40625 C 26.945312 -1.550781 27.539062 -0.992188 28.40625 -0.734375 L 28.40625 0 Z M 6.171875 -8.359375 C 6.171875 -6.523438 6.722656 -5.128906 7.828125 -4.171875 C 8.929688 -3.222656 10.289062 -2.75 11.90625 -2.75 C 13.394531 -2.75 14.75 -3.171875 15.96875 -4.015625 C 17.1875 -4.859375 18.222656 -5.953125 19.078125 -7.296875 C 19.941406 -8.640625 20.617188 -10.097656 21.109375 -11.671875 C 21.597656 -13.242188 21.84375 -14.757812 21.84375 -16.21875 L 21.84375 -17.90625 L 14.765625 -16 C 13.378906 -15.625 12.019531 -15.128906 10.6875 -14.515625 C 9.363281 -13.898438 8.28125 -13.101562 7.4375 -12.125 C 6.59375 -11.15625 6.171875 -9.898438 6.171875 -8.359375 Z M 6.171875 -8.359375 "/></g></g></g><g fill="#1d1d1d" fill-opacity="1"><g transform="translate(307.613668, 245.013822)"><g><path d="M 23.515625 0 C 22.398438 0 21.84375 -0.5625 21.84375 -1.6875 L 21.84375 -11.796875 C 21.28125 -9.503906 20.398438 -7.421875 19.203125 -5.546875 C 18.003906 -3.679688 16.609375 -2.195312 15.015625 -1.09375 C 13.421875 0.0078125 11.691406 0.5625 9.828125 0.5625 C 8.441406 0.5625 7.148438 0.28125 5.953125 -0.28125 C 4.753906 -0.84375 3.789062 -1.664062 3.0625 -2.75 C 2.332031 -3.832031 1.96875 -5.179688 1.96875 -6.796875 C 1.96875 -8.742188 2.546875 -10.332031 3.703125 -11.5625 C 4.867188 -12.800781 6.414062 -13.8125 8.34375 -14.59375 C 10.269531 -15.382812 12.335938 -16.078125 14.546875 -16.671875 L 21.84375 -18.640625 C 21.6875 -21.367188 20.9375 -23.378906 19.59375 -24.671875 C 18.25 -25.960938 16.378906 -26.609375 13.984375 -26.609375 C 12.296875 -26.609375 10.65625 -26.207031 9.0625 -25.40625 C 7.476562 -24.601562 5.972656 -23.335938 4.546875 -21.609375 L 4.046875 -22.0625 C 5.648438 -24.039062 7.472656 -25.601562 9.515625 -26.75 C 11.554688 -27.894531 13.789062 -28.46875 16.21875 -28.46875 C 19.625 -28.46875 22.128906 -27.578125 23.734375 -25.796875 C 25.347656 -24.015625 26.15625 -21.535156 26.15625 -18.359375 L 26.15625 -7.125 C 26.15625 -4.84375 26.3125 -3.269531 26.625 -2.40625 C 26.945312 -1.550781 27.539062 -0.992188 28.40625 -0.734375 L 28.40625 0 Z M 6.171875 -8.359375 C 6.171875 -6.523438 6.722656 -5.128906 7.828125 -4.171875 C 8.929688 -3.222656 10.289062 -2.75 11.90625 -2.75 C 13.394531 -2.75 14.75 -3.171875 15.96875 -4.015625 C 17.1875 -4.859375 18.222656 -5.953125 19.078125 -7.296875 C 19.941406 -8.640625 20.617188 -10.097656 21.109375 -11.671875 C 21.597656 -13.242188 21.84375 -14.757812 21.84375 -16.21875 L 21.84375 -17.90625 L 14.765625 -16 C 13.378906 -15.625 12.019531 -15.128906 10.6875 -14.515625 C 9.363281 -13.898438 8.28125 -13.101562 7.4375 -12.125 C 6.59375 -11.15625 6.171875 -9.898438 6.171875 -8.359375 Z M 6.171875 -8.359375 "/></g></g></g><g fill="#1d1d1d" fill-opacity="1"><g transform="translate(337.370273, 245.013822)"><g><path d="M 14.421875 0.625 C 12.109375 0.582031 10.015625 -0.046875 8.140625 -1.265625 C 6.265625 -2.484375 4.773438 -4.148438 3.671875 -6.265625 C 2.566406 -8.378906 2.015625 -10.742188 2.015625 -13.359375 C 2.015625 -15.984375 2.59375 -18.4375 3.75 -20.71875 C 4.914062 -23 6.613281 -24.847656 8.84375 -26.265625 C 11.070312 -27.691406 13.796875 -28.40625 17.015625 -28.40625 C 18.546875 -28.40625 19.957031 -28.195312 21.25 -27.78125 C 22.539062 -27.375 23.671875 -26.851562 24.640625 -26.21875 L 24.640625 -36.890625 C 24.640625 -38.191406 24.554688 -39.171875 24.390625 -39.828125 C 24.222656 -40.484375 23.976562 -40.960938 23.65625 -41.265625 C 23.34375 -41.566406 22.925781 -41.828125 22.40625 -42.046875 L 22.40625 -42.671875 L 28.578125 -45.359375 L 29.03125 -44.96875 L 29.03125 -7.125 C 29.03125 -4.84375 29.1875 -3.269531 29.5 -2.40625 C 29.820312 -1.550781 30.410156 -0.992188 31.265625 -0.734375 L 31.265625 0 L 26.328125 0 C 25.203125 0 24.640625 -0.5625 24.640625 -1.6875 L 24.640625 -4.890625 C 23.253906 -3.460938 21.703125 -2.175781 19.984375 -1.03125 C 18.265625 0.101562 16.410156 0.65625 14.421875 0.625 Z M 6.234375 -16.734375 C 6.234375 -15.085938 6.4375 -13.410156 6.84375 -11.703125 C 7.257812 -10.003906 7.890625 -8.421875 8.734375 -6.953125 C 9.578125 -5.492188 10.679688 -4.328125 12.046875 -3.453125 C 13.410156 -2.578125 15.046875 -2.140625 16.953125 -2.140625 C 18.410156 -2.140625 19.785156 -2.484375 21.078125 -3.171875 C 22.367188 -3.859375 23.554688 -4.765625 24.640625 -5.890625 L 24.640625 -19.65625 C 24.492188 -20.882812 23.96875 -22.085938 23.0625 -23.265625 C 22.164062 -24.441406 21.035156 -25.414062 19.671875 -26.1875 C 18.304688 -26.957031 16.835938 -27.34375 15.265625 -27.34375 C 13.285156 -27.34375 11.617188 -26.875 10.265625 -25.9375 C 8.921875 -25 7.910156 -23.722656 7.234375 -22.109375 C 6.566406 -20.503906 6.234375 -18.710938 6.234375 -16.734375 Z M 6.234375 -16.734375 "/></g></g></g><g fill="#1d1d1d" fill-opacity="1"><g transform="translate(103.707837, 292.616525)"><g><path d="M 2.1875 -16.3125 L 1.78125 -16.265625 C 1.664062 -16.265625 1.609375 -16.296875 1.609375 -16.359375 C 1.609375 -16.671875 1.796875 -17.367188 2.171875 -18.453125 C 2.546875 -19.535156 2.972656 -20.328125 3.453125 -20.828125 C 5.085938 -22.515625 6.925781 -23.359375 8.96875 -23.359375 C 11.019531 -23.359375 12.664062 -22.71875 13.90625 -21.4375 C 15.144531 -20.15625 15.765625 -18.546875 15.765625 -16.609375 C 15.765625 -14.671875 14.515625 -12.535156 12.015625 -10.203125 C 11.222656 -9.453125 10.5625 -8.851562 10.03125 -8.40625 C 9.351562 -7.820312 8.15625 -6.695312 6.4375 -5.03125 C 4.726562 -3.375 3.875 -2.457031 3.875 -2.28125 L 13.421875 -2.28125 C 14.242188 -2.28125 14.820312 -2.515625 15.15625 -2.984375 C 15.363281 -3.253906 15.625 -3.96875 15.9375 -5.125 L 16.578125 -5.125 L 15.859375 -0.5625 C 15.796875 -0.300781 15.664062 -0.113281 15.46875 0 L 1.375 0 C 1.3125 0 1.28125 -0.144531 1.28125 -0.4375 C 1.28125 -0.71875 1.539062 -1.15625 2.0625 -1.75 C 2.59375 -2.351562 3.265625 -3.0625 4.078125 -3.875 C 4.898438 -4.695312 6.019531 -5.820312 7.4375 -7.25 C 11.03125 -10.894531 12.828125 -13.8125 12.828125 -16 C 12.828125 -17.34375 12.335938 -18.5625 11.359375 -19.65625 C 10.378906 -20.75 9.242188 -21.296875 7.953125 -21.296875 C 6.660156 -21.296875 5.503906 -20.859375 4.484375 -19.984375 C 3.492188 -19.117188 2.820312 -17.992188 2.46875 -16.609375 C 2.425781 -16.410156 2.332031 -16.3125 2.1875 -16.3125 Z M 2.1875 -16.3125 "/></g></g></g><g fill="#1d1d1d" fill-opacity="1"><g transform="translate(122.342354, 292.616525)"><g><path d="M 1.28125 -11.734375 C 1.28125 -14.523438 2.0625 -17.160156 3.625 -19.640625 C 5.1875 -22.117188 6.921875 -23.359375 8.828125 -23.359375 C 10.328125 -23.359375 11.671875 -22.785156 12.859375 -21.640625 C 14.054688 -20.492188 14.957031 -18.992188 15.5625 -17.140625 C 16.175781 -15.285156 16.484375 -13.347656 16.484375 -11.328125 C 16.484375 -8.242188 15.785156 -5.546875 14.390625 -3.234375 C 13.484375 -1.703125 12.367188 -0.625 11.046875 0 C 10.367188 0.300781 9.664062 0.453125 8.9375 0.453125 C 7.570312 0.453125 6.300781 -0.0976562 5.125 -1.203125 C 3.957031 -2.316406 3.023438 -3.703125 2.328125 -5.359375 C 1.628906 -7.015625 1.28125 -8.613281 1.28125 -10.15625 Z M 9 -0.546875 C 12.15625 -0.546875 13.734375 -3.820312 13.734375 -10.375 C 13.734375 -13.125 13.675781 -14.972656 13.5625 -15.921875 C 13.332031 -17.910156 12.890625 -19.421875 12.234375 -20.453125 C 11.421875 -21.722656 10.25 -22.359375 8.71875 -22.359375 C 5.851562 -22.359375 4.300781 -19.460938 4.0625 -13.671875 C 4.03125 -12.835938 4.015625 -11.832031 4.015625 -10.65625 C 4.015625 -7.570312 4.347656 -5.179688 5.015625 -3.484375 C 5.796875 -1.523438 7.125 -0.546875 9 -0.546875 Z M 9 -0.546875 "/></g></g></g><g fill="#1d1d1d" fill-opacity="1"><g transform="translate(140.976871, 292.616525)"><g><path d="M 2.203125 -1.703125 C 2.203125 -2.304688 2.414062 -2.832031 2.84375 -3.28125 C 3.269531 -3.726562 3.789062 -3.953125 4.40625 -3.953125 C 5 -3.953125 5.515625 -3.734375 5.953125 -3.296875 C 6.390625 -2.859375 6.609375 -2.328125 6.609375 -1.703125 C 6.609375 -1.085938 6.390625 -0.570312 5.953125 -0.15625 C 5.523438 0.25 5.007812 0.453125 4.40625 0.453125 C 3.800781 0.453125 3.28125 0.242188 2.84375 -0.171875 C 2.414062 -0.585938 2.203125 -1.097656 2.203125 -1.703125 Z M 2.203125 -1.703125 "/></g></g></g><g fill="#1d1d1d" fill-opacity="1"><g transform="translate(150.651579, 292.616525)"><g><path d="M 1.28125 -11.734375 C 1.28125 -14.523438 2.0625 -17.160156 3.625 -19.640625 C 5.1875 -22.117188 6.921875 -23.359375 8.828125 -23.359375 C 10.328125 -23.359375 11.671875 -22.785156 12.859375 -21.640625 C 14.054688 -20.492188 14.957031 -18.992188 15.5625 -17.140625 C 16.175781 -15.285156 16.484375 -13.347656 16.484375 -11.328125 C 16.484375 -8.242188 15.785156 -5.546875 14.390625 -3.234375 C 13.484375 -1.703125 12.367188 -0.625 11.046875 0 C 10.367188 0.300781 9.664062 0.453125 8.9375 0.453125 C 7.570312 0.453125 6.300781 -0.0976562 5.125 -1.203125 C 3.957031 -2.316406 3.023438 -3.703125 2.328125 -5.359375 C 1.628906 -7.015625 1.28125 -8.613281 1.28125 -10.15625 Z M 9 -0.546875 C 12.15625 -0.546875 13.734375 -3.820312 13.734375 -10.375 C 13.734375 -13.125 13.675781 -14.972656 13.5625 -15.921875 C 13.332031 -17.910156 12.890625 -19.421875 12.234375 -20.453125 C 11.421875 -21.722656 10.25 -22.359375 8.71875 -22.359375 C 5.851562 -22.359375 4.300781 -19.460938 4.0625 -13.671875 C 4.03125 -12.835938 4.015625 -11.832031 4.015625 -10.65625 C 4.015625 -7.570312 4.347656 -5.179688 5.015625 -3.484375 C 5.796875 -1.523438 7.125 -0.546875 9 -0.546875 Z M 9 -0.546875 "/></g></g></g><g fill="#1d1d1d" fill-opacity="1"><g transform="translate(169.286096, 292.616525)"><g><path d="M 15.25 -23.328125 C 15.425781 -23.328125 15.515625 -23.238281 15.515625 -23.0625 C 15.515625 -22.894531 15.050781 -22.5625 14.125 -22.0625 C 13.195312 -21.5625 12.617188 -21.226562 12.390625 -21.0625 C 11.660156 -20.570312 10.929688 -20.03125 10.203125 -19.4375 C 7.785156 -17.5 6.554688 -15.914062 6.515625 -14.6875 C 6.609375 -14.6875 6.710938 -14.710938 6.828125 -14.765625 C 6.953125 -14.828125 7.164062 -14.921875 7.46875 -15.046875 C 7.78125 -15.171875 8.335938 -15.234375 9.140625 -15.234375 C 9.953125 -15.234375 10.820312 -15.023438 11.75 -14.609375 C 12.6875 -14.191406 13.492188 -13.632812 14.171875 -12.9375 C 15.617188 -11.425781 16.34375 -9.570312 16.34375 -7.375 C 16.34375 -5.1875 15.601562 -3.332031 14.125 -1.8125 C 12.65625 -0.300781 10.828125 0.453125 8.640625 0.453125 C 6.460938 0.453125 4.703125 -0.441406 3.359375 -2.234375 C 2.023438 -4.023438 1.359375 -6.113281 1.359375 -8.5 C 1.359375 -11.46875 2.320312 -14.054688 4.25 -16.265625 C 5.925781 -18.171875 8.769531 -20.222656 12.78125 -22.421875 C 13.238281 -22.671875 13.71875 -22.882812 14.21875 -23.0625 C 14.726562 -23.238281 15.070312 -23.328125 15.25 -23.328125 Z M 4.1875 -7.515625 C 4.1875 -5.742188 4.519531 -4.191406 5.1875 -2.859375 C 6 -1.242188 7.191406 -0.4375 8.765625 -0.4375 C 10.335938 -0.4375 11.523438 -1.15625 12.328125 -2.59375 C 13.003906 -3.789062 13.34375 -5.238281 13.34375 -6.9375 C 13.34375 -10.269531 12.453125 -12.5 10.671875 -13.625 C 10.015625 -14.03125 9.242188 -14.234375 8.359375 -14.234375 C 6.804688 -14.234375 5.703125 -13.597656 5.046875 -12.328125 C 4.492188 -11.253906 4.207031 -9.710938 4.1875 -7.703125 Z M 4.1875 -7.515625 "/></g></g></g><g fill="#1d1d1d" fill-opacity="1"><g transform="translate(187.920613, 292.616525)"><g><path d="M 2.203125 -1.703125 C 2.203125 -2.304688 2.414062 -2.832031 2.84375 -3.28125 C 3.269531 -3.726562 3.789062 -3.953125 4.40625 -3.953125 C 5 -3.953125 5.515625 -3.734375 5.953125 -3.296875 C 6.390625 -2.859375 6.609375 -2.328125 6.609375 -1.703125 C 6.609375 -1.085938 6.390625 -0.570312 5.953125 -0.15625 C 5.523438 0.25 5.007812 0.453125 4.40625 0.453125 C 3.800781 0.453125 3.28125 0.242188 2.84375 -0.171875 C 2.414062 -0.585938 2.203125 -1.097656 2.203125 -1.703125 Z M 2.203125 -1.703125 "/></g></g></g><g fill="#1d1d1d" fill-opacity="1"><g transform="translate(197.595322, 292.616525)"><g><path d="M 2.1875 -16.3125 L 1.78125 -16.265625 C 1.664062 -16.265625 1.609375 -16.296875 1.609375 -16.359375 C 1.609375 -16.671875 1.796875 -17.367188 2.171875 -18.453125 C 2.546875 -19.535156 2.972656 -20.328125 3.453125 -20.828125 C 5.085938 -22.515625 6.925781 -23.359375 8.96875 -23.359375 C 11.019531 -23.359375 12.664062 -22.71875 13.90625 -21.4375 C 15.144531 -20.15625 15.765625 -18.546875 15.765625 -16.609375 C 15.765625 -14.671875 14.515625 -12.535156 12.015625 -10.203125 C 11.222656 -9.453125 10.5625 -8.851562 10.03125 -8.40625 C 9.351562 -7.820312 8.15625 -6.695312 6.4375 -5.03125 C 4.726562 -3.375 3.875 -2.457031 3.875 -2.28125 L 13.421875 -2.28125 C 14.242188 -2.28125 14.820312 -2.515625 15.15625 -2.984375 C 15.363281 -3.253906 15.625 -3.96875 15.9375 -5.125 L 16.578125 -5.125 L 15.859375 -0.5625 C 15.796875 -0.300781 15.664062 -0.113281 15.46875 0 L 1.375 0 C 1.3125 0 1.28125 -0.144531 1.28125 -0.4375 C 1.28125 -0.71875 1.539062 -1.15625 2.0625 -1.75 C 2.59375 -2.351562 3.265625 -3.0625 4.078125 -3.875 C 4.898438 -4.695312 6.019531 -5.820312 7.4375 -7.25 C 11.03125 -10.894531 12.828125 -13.8125 12.828125 -16 C 12.828125 -17.34375 12.335938 -18.5625 11.359375 -19.65625 C 10.378906 -20.75 9.242188 -21.296875 7.953125 -21.296875 C 6.660156 -21.296875 5.503906 -20.859375 4.484375 -19.984375 C 3.492188 -19.117188 2.820312 -17.992188 2.46875 -16.609375 C 2.425781 -16.410156 2.332031 -16.3125 2.1875 -16.3125 Z M 2.1875 -16.3125 "/></g></g></g><g fill="#1d1d1d" fill-opacity="1"><g transform="translate(216.229838, 292.616525)"><g><path d="M 1.28125 -11.734375 C 1.28125 -14.523438 2.0625 -17.160156 3.625 -19.640625 C 5.1875 -22.117188 6.921875 -23.359375 8.828125 -23.359375 C 10.328125 -23.359375 11.671875 -22.785156 12.859375 -21.640625 C 14.054688 -20.492188 14.957031 -18.992188 15.5625 -17.140625 C 16.175781 -15.285156 16.484375 -13.347656 16.484375 -11.328125 C 16.484375 -8.242188 15.785156 -5.546875 14.390625 -3.234375 C 13.484375 -1.703125 12.367188 -0.625 11.046875 0 C 10.367188 0.300781 9.664062 0.453125 8.9375 0.453125 C 7.570312 0.453125 6.300781 -0.0976562 5.125 -1.203125 C 3.957031 -2.316406 3.023438 -3.703125 2.328125 -5.359375 C 1.628906 -7.015625 1.28125 -8.613281 1.28125 -10.15625 Z M 9 -0.546875 C 12.15625 -0.546875 13.734375 -3.820312 13.734375 -10.375 C 13.734375 -13.125 13.675781 -14.972656 13.5625 -15.921875 C 13.332031 -17.910156 12.890625 -19.421875 12.234375 -20.453125 C 11.421875 -21.722656 10.25 -22.359375 8.71875 -22.359375 C 5.851562 -22.359375 4.300781 -19.460938 4.0625 -13.671875 C 4.03125 -12.835938 4.015625 -11.832031 4.015625 -10.65625 C 4.015625 -7.570312 4.347656 -5.179688 5.015625 -3.484375 C 5.796875 -1.523438 7.125 -0.546875 9 -0.546875 Z M 9 -0.546875 "/></g></g></g><g fill="#1d1d1d" fill-opacity="1"><g transform="translate(234.864355, 292.616525)"><g><path d="M 2.1875 -16.3125 L 1.78125 -16.265625 C 1.664062 -16.265625 1.609375 -16.296875 1.609375 -16.359375 C 1.609375 -16.671875 1.796875 -17.367188 2.171875 -18.453125 C 2.546875 -19.535156 2.972656 -20.328125 3.453125 -20.828125 C 5.085938 -22.515625 6.925781 -23.359375 8.96875 -23.359375 C 11.019531 -23.359375 12.664062 -22.71875 13.90625 -21.4375 C 15.144531 -20.15625 15.765625 -18.546875 15.765625 -16.609375 C 15.765625 -14.671875 14.515625 -12.535156 12.015625 -10.203125 C 11.222656 -9.453125 10.5625 -8.851562 10.03125 -8.40625 C 9.351562 -7.820312 8.15625 -6.695312 6.4375 -5.03125 C 4.726562 -3.375 3.875 -2.457031 3.875 -2.28125 L 13.421875 -2.28125 C 14.242188 -2.28125 14.820312 -2.515625 15.15625 -2.984375 C 15.363281 -3.253906 15.625 -3.96875 15.9375 -5.125 L 16.578125 -5.125 L 15.859375 -0.5625 C 15.796875 -0.300781 15.664062 -0.113281 15.46875 0 L 1.375 0 C 1.3125 0 1.28125 -0.144531 1.28125 -0.4375 C 1.28125 -0.71875 1.539062 -1.15625 2.0625 -1.75 C 2.59375 -2.351562 3.265625 -3.0625 4.078125 -3.875 C 4.898438 -4.695312 6.019531 -5.820312 7.4375 -7.25 C 11.03125 -10.894531 12.828125 -13.8125 12.828125 -16 C 12.828125 -17.34375 12.335938 -18.5625 11.359375 -19.65625 C 10.378906 -20.75 9.242188 -21.296875 7.953125 -21.296875 C 6.660156 -21.296875 5.503906 -20.859375 4.484375 -19.984375 C 3.492188 -19.117188 2.820312 -17.992188 2.46875 -16.609375 C 2.425781 -16.410156 2.332031 -16.3125 2.1875 -16.3125 Z M 2.1875 -16.3125 "/></g></g></g><g fill="#1d1d1d" fill-opacity="1"><g transform="translate(253.498872, 292.616525)"><g><path d="M 15.25 -23.328125 C 15.425781 -23.328125 15.515625 -23.238281 15.515625 -23.0625 C 15.515625 -22.894531 15.050781 -22.5625 14.125 -22.0625 C 13.195312 -21.5625 12.617188 -21.226562 12.390625 -21.0625 C 11.660156 -20.570312 10.929688 -20.03125 10.203125 -19.4375 C 7.785156 -17.5 6.554688 -15.914062 6.515625 -14.6875 C 6.609375 -14.6875 6.710938 -14.710938 6.828125 -14.765625 C 6.953125 -14.828125 7.164062 -14.921875 7.46875 -15.046875 C 7.78125 -15.171875 8.335938 -15.234375 9.140625 -15.234375 C 9.953125 -15.234375 10.820312 -15.023438 11.75 -14.609375 C 12.6875 -14.191406 13.492188 -13.632812 14.171875 -12.9375 C 15.617188 -11.425781 16.34375 -9.570312 16.34375 -7.375 C 16.34375 -5.1875 15.601562 -3.332031 14.125 -1.8125 C 12.65625 -0.300781 10.828125 0.453125 8.640625 0.453125 C 6.460938 0.453125 4.703125 -0.441406 3.359375 -2.234375 C 2.023438 -4.023438 1.359375 -6.113281 1.359375 -8.5 C 1.359375 -11.46875 2.320312 -14.054688 4.25 -16.265625 C 5.925781 -18.171875 8.769531 -20.222656 12.78125 -22.421875 C 13.238281 -22.671875 13.71875 -22.882812 14.21875 -23.0625 C 14.726562 -23.238281 15.070312 -23.328125 15.25 -23.328125 Z M 4.1875 -7.515625 C 4.1875 -5.742188 4.519531 -4.191406 5.1875 -2.859375 C 6 -1.242188 7.191406 -0.4375 8.765625 -0.4375 C 10.335938 -0.4375 11.523438 -1.15625 12.328125 -2.59375 C 13.003906 -3.789062 13.34375 -5.238281 13.34375 -6.9375 C 13.34375 -10.269531 12.453125 -12.5 10.671875 -13.625 C 10.015625 -14.03125 9.242188 -14.234375 8.359375 -14.234375 C 6.804688 -14.234375 5.703125 -13.597656 5.046875 -12.328125 C 4.492188 -11.253906 4.207031 -9.710938 4.1875 -7.703125 Z M 4.1875 -7.515625 "/></g></g></g><g fill="#1d1d1d" fill-opacity="1"><g transform="translate(214.630274, 121.488442)"><g><path d="M 103.78125 31.59375 L 103.890625 31.828125 C 103.578125 31.828125 103.140625 31.664062 102.578125 31.34375 C 102.097656 31.03125 101.578125 30.648438 101.015625 30.203125 C 100.453125 29.765625 99.890625 29.347656 99.328125 28.953125 C 99.085938 28.710938 98.867188 28.488281 98.671875 28.28125 C 98.472656 28.082031 98.253906 27.90625 98.015625 27.75 C 97.285156 27.1875 96.582031 26.625 95.90625 26.0625 C 95.226562 25.5 94.566406 24.9375 93.921875 24.375 C 92.484375 23.175781 91.039062 21.992188 89.59375 20.828125 C 88.15625 19.671875 86.675781 18.535156 85.15625 17.421875 C 84.03125 16.535156 82.890625 15.671875 81.734375 14.828125 C 80.578125 13.992188 79.4375 13.132812 78.3125 12.25 C 77.988281 12.007812 77.625 11.75 77.21875 11.46875 C 76.820312 11.1875 76.425781 10.925781 76.03125 10.6875 C 75.226562 10.207031 74.445312 9.6875 73.6875 9.125 C 72.925781 8.5625 72.265625 8.003906 71.703125 7.453125 C 63.140625 1.117188 55.453125 -3.96875 48.640625 -7.8125 C 46.796875 -8.769531 45.394531 -9.25 44.4375 -9.25 C 43.15625 -9.25 42.035156 -8.367188 41.078125 -6.609375 C 40.515625 -5.648438 39.632812 -3.867188 38.4375 -1.265625 C 37.238281 1.335938 35.859375 4.378906 34.296875 7.859375 C 32.734375 11.347656 31.109375 14.992188 29.421875 18.796875 C 27.742188 22.597656 26.144531 26.257812 24.625 29.78125 C 23.101562 33.3125 21.78125 36.375 20.65625 38.96875 C 19.539062 41.570312 18.738281 43.394531 18.25 44.4375 C 17.457031 46.4375 16.617188 48.457031 15.734375 50.5 C 14.847656 52.539062 13.925781 54.566406 12.96875 56.578125 C 12.894531 56.816406 12.796875 57.054688 12.671875 57.296875 C 12.546875 57.535156 12.445312 57.773438 12.375 58.015625 C 12.132812 58.578125 11.910156 59.097656 11.703125 59.578125 C 11.503906 60.054688 11.25 60.535156 10.9375 61.015625 C 10.6875 61.410156 10.398438 61.769531 10.078125 62.09375 C 9.765625 62.414062 9.410156 62.578125 9.015625 62.578125 C 8.609375 62.578125 8.164062 62.414062 7.6875 62.09375 C 5.925781 61.132812 5.40625 59.734375 6.125 57.890625 C 7.25 55.085938 8.367188 52.285156 9.484375 49.484375 C 10.609375 46.679688 11.734375 43.878906 12.859375 41.078125 L 14.53125 37 C 14.851562 36.195312 15.515625 34.613281 16.515625 32.25 C 17.515625 29.882812 18.710938 27.0625 20.109375 23.78125 C 21.515625 20.5 23 17.078125 24.5625 13.515625 C 26.125 9.953125 27.601562 6.523438 29 3.234375 C 30.40625 -0.046875 31.628906 -2.863281 32.671875 -5.21875 C 33.710938 -7.582031 34.394531 -9.164062 34.71875 -9.96875 C 35.03125 -10.613281 35.226562 -11.210938 35.3125 -11.765625 C 35.394531 -12.328125 35.273438 -12.847656 34.953125 -13.328125 C 34.472656 -14.128906 33.351562 -14.8125 31.59375 -15.375 L 29.546875 -15.96875 C 27.304688 -16.613281 25.023438 -17.210938 22.703125 -17.765625 C 20.378906 -18.328125 18.054688 -18.734375 15.734375 -18.984375 C 14.847656 -19.054688 13.960938 -19.234375 13.078125 -19.515625 C 12.203125 -19.796875 11.566406 -20.378906 11.171875 -21.265625 C 10.367188 -22.941406 11.128906 -24.179688 13.453125 -24.984375 C 18.253906 -26.421875 22.753906 -27.78125 26.953125 -29.0625 C 31.160156 -30.34375 35.390625 -31.546875 39.640625 -32.671875 C 43.003906 -33.472656 45.285156 -35.394531 46.484375 -38.4375 C 53.046875 -54.125 59.691406 -68.253906 66.421875 -80.828125 C 66.503906 -80.992188 66.703125 -81.234375 67.015625 -81.546875 C 67.253906 -81.796875 67.492188 -82.097656 67.734375 -82.453125 C 67.984375 -82.816406 68.066406 -83.238281 67.984375 -83.71875 C 67.742188 -84.519531 66.863281 -85.398438 65.34375 -86.359375 C 65.175781 -86.753906 65.410156 -87.289062 66.046875 -87.96875 C 66.691406 -88.65625 67.296875 -89.28125 67.859375 -89.84375 C 68.097656 -90.082031 68.335938 -90.320312 68.578125 -90.5625 C 68.816406 -90.800781 69.054688 -91.039062 69.296875 -91.28125 L 69.78125 -91.890625 C 70.1875 -92.367188 70.648438 -92.847656 71.171875 -93.328125 C 71.691406 -93.804688 72.269531 -94.046875 72.90625 -94.046875 C 73.550781 -94.046875 74.234375 -93.722656 74.953125 -93.078125 C 75.910156 -92.285156 76.328125 -91.46875 76.203125 -90.625 C 76.085938 -89.78125 75.789062 -88.835938 75.3125 -87.796875 L 74.953125 -87.078125 C 72.867188 -82.429688 70.785156 -77.785156 68.703125 -73.140625 C 66.617188 -68.503906 64.535156 -63.863281 62.453125 -59.21875 L 54.65625 -41.796875 C 54.488281 -41.316406 54.304688 -40.851562 54.109375 -40.40625 C 53.910156 -39.96875 53.726562 -39.507812 53.5625 -39.03125 L 52.84375 -37 L 53.5625 -36.875 C 54.050781 -36.789062 54.492188 -36.75 54.890625 -36.75 C 56.015625 -36.75 56.875 -37.050781 57.46875 -37.65625 C 58.070312 -38.257812 58.613281 -38.878906 59.09375 -39.515625 C 59.414062 -39.992188 59.65625 -40.351562 59.8125 -40.59375 C 64.9375 -46.757812 70.476562 -52.820312 76.4375 -58.78125 C 82.40625 -64.75 89.351562 -69.816406 97.28125 -73.984375 C 99.445312 -75.109375 101.726562 -76.109375 104.125 -76.984375 C 106.53125 -77.867188 109.175781 -78.3125 112.0625 -78.3125 L 112.90625 -78.3125 C 116.75 -78.226562 119.671875 -77.023438 121.671875 -74.703125 C 123.585938 -72.378906 124.066406 -69.5 123.109375 -66.0625 C 122.148438 -62.375 120.425781 -59.347656 117.9375 -56.984375 C 115.457031 -54.628906 112.9375 -52.570312 110.375 -50.8125 C 99.40625 -43.28125 85.957031 -38.070312 70.03125 -35.1875 C 59.78125 -33.269531 52.410156 -27.625 47.921875 -18.25 C 47.597656 -17.695312 47.273438 -17.117188 46.953125 -16.515625 C 46.640625 -15.910156 46.320312 -15.332031 46 -14.78125 L 45.046875 -13.09375 L 45.875 -12.484375 C 46.039062 -12.410156 46.601562 -12.070312 47.5625 -11.46875 C 48.519531 -10.863281 49.617188 -10.179688 50.859375 -9.421875 C 52.109375 -8.660156 53.289062 -7.921875 54.40625 -7.203125 C 55.53125 -6.484375 56.332031 -6.003906 56.8125 -5.765625 C 60.5 -3.359375 64.179688 -0.796875 67.859375 1.921875 C 72.179688 5.046875 76.425781 8.347656 80.59375 11.828125 C 84.757812 15.316406 88.84375 18.78125 92.84375 22.21875 C 94.519531 23.65625 96.195312 25.09375 97.875 26.53125 C 99.5625 27.976562 101.25 29.425781 102.9375 30.875 C 103.414062 31.1875 103.695312 31.425781 103.78125 31.59375 Z M 40.71875 -27.5 L 40 -27.390625 C 33.269531 -26.265625 26.820312 -24.582031 20.65625 -22.34375 L 19.453125 -21.859375 L 20.90625 -21.5 C 24.5 -20.375 27.4375 -19.507812 29.71875 -18.90625 C 32.007812 -18.3125 33.796875 -18.015625 35.078125 -18.015625 C 37.078125 -18.015625 38.351562 -18.710938 38.90625 -20.109375 C 39.46875 -21.515625 40.03125 -23.703125 40.59375 -26.671875 Z M 119.03125 -74.109375 C 117.425781 -75.867188 115.382812 -76.75 112.90625 -76.75 C 111.78125 -76.75 110.457031 -76.585938 108.9375 -76.265625 C 102.613281 -74.585938 96.988281 -72.066406 92.0625 -68.703125 C 87.132812 -65.335938 82.671875 -61.53125 78.671875 -57.28125 C 74.671875 -53.039062 70.785156 -48.722656 67.015625 -44.328125 L 62.8125 -39.390625 L 64.265625 -39.640625 C 77.953125 -42.117188 89.878906 -45.722656 100.046875 -50.453125 C 103.566406 -52.046875 106.96875 -53.921875 110.25 -56.078125 C 113.539062 -58.242188 116.304688 -61.050781 118.546875 -64.5 C 119.429688 -65.695312 120.148438 -67.113281 120.703125 -68.75 C 121.265625 -70.394531 120.707031 -72.179688 119.03125 -74.109375 Z M 119.03125 -74.109375 "/></g></g></g><g fill="#1d1d1d" fill-opacity="1"><g transform="translate(158.122583, 129.678895)"><g><path d="M 56.09375 -31.5625 C 56.425781 -30.976562 56.476562 -30.570312 56.25 -30.34375 C 56.019531 -30.113281 55.675781 -29.867188 55.21875 -29.609375 L 54.828125 -29.421875 C 51.898438 -27.859375 49.210938 -26.066406 46.765625 -24.046875 C 44.316406 -22.023438 41.957031 -20.003906 39.6875 -17.984375 L 37.71875 -16.21875 C 36.613281 -15.175781 36.160156 -14.234375 36.359375 -13.390625 C 36.554688 -12.546875 37.367188 -11.601562 38.796875 -10.5625 C 41.472656 -8.664062 43.953125 -6.804688 46.234375 -4.984375 C 46.679688 -4.585938 47.050781 -4.226562 47.34375 -3.90625 C 47.644531 -3.582031 47.664062 -3.257812 47.40625 -2.9375 C 47.269531 -2.675781 47.070312 -2.546875 46.8125 -2.546875 C 46.613281 -2.546875 46.367188 -2.609375 46.078125 -2.734375 C 45.785156 -2.867188 45.507812 -3 45.25 -3.125 C 41.539062 -5.019531 38.507812 -7.101562 36.15625 -9.375 C 34.988281 -10.488281 34.015625 -11.046875 33.234375 -11.046875 C 32.515625 -11.046875 31.765625 -10.65625 30.984375 -9.875 C 29.160156 -8.113281 27.023438 -6.398438 24.578125 -4.734375 C 22.140625 -3.078125 19.222656 -1.921875 15.828125 -1.265625 C 15.117188 -1.140625 14.40625 -1.078125 13.6875 -1.078125 C 12.570312 -1.078125 11.429688 -1.238281 10.265625 -1.5625 C 8.304688 -2.21875 6.9375 -3.097656 6.15625 -4.203125 C 5.375 -5.242188 5.113281 -6.546875 5.375 -8.109375 C 5.832031 -10.910156 7.164062 -13.519531 9.375 -15.9375 C 11.070312 -17.757812 12.816406 -19.613281 14.609375 -21.5 C 16.398438 -23.382812 18.273438 -25.242188 20.234375 -27.078125 C 21.597656 -28.378906 22.085938 -30.101562 21.703125 -32.25 C 20.523438 -38.769531 21.007812 -44.550781 23.15625 -49.59375 C 25.3125 -54.644531 28.832031 -58.3125 33.71875 -60.59375 C 36.519531 -61.894531 39.382812 -62.644531 42.3125 -62.84375 L 43.390625 -62.84375 C 44.429688 -62.84375 45.75 -62.675781 47.34375 -62.34375 C 48.945312 -62.019531 50.238281 -61.207031 51.21875 -59.90625 C 53.238281 -57.363281 53.59375 -54.5625 52.28125 -51.5 C 51.3125 -49.15625 49.992188 -47.164062 48.328125 -45.53125 C 46.671875 -43.90625 45.023438 -42.441406 43.390625 -41.140625 C 41.628906 -39.710938 39.820312 -38.328125 37.96875 -36.984375 C 36.113281 -35.648438 34.273438 -34.332031 32.453125 -33.03125 C 31.796875 -32.570312 31.109375 -32.082031 30.390625 -31.5625 C 29.679688 -31.039062 29 -30.554688 28.34375 -30.109375 C 27.757812 -29.648438 27.285156 -29.175781 26.921875 -28.6875 C 26.566406 -28.195312 26.648438 -27.398438 27.171875 -26.296875 C 27.296875 -26.035156 27.421875 -25.738281 27.546875 -25.40625 C 27.679688 -25.082031 27.847656 -24.789062 28.046875 -24.53125 C 28.503906 -23.351562 29.039062 -22.175781 29.65625 -21 C 30.28125 -19.832031 31.144531 -18.757812 32.25 -17.78125 C 32.507812 -17.59375 32.769531 -17.5 33.03125 -17.5 C 33.351562 -17.5 33.628906 -17.609375 33.859375 -17.828125 C 34.085938 -18.054688 34.332031 -18.300781 34.59375 -18.5625 C 34.726562 -18.820312 34.859375 -18.988281 34.984375 -19.0625 L 36.0625 -20.140625 C 37.820312 -21.890625 39.644531 -23.613281 41.53125 -25.3125 C 43.425781 -27.007812 45.515625 -28.507812 47.796875 -29.8125 C 49.484375 -30.789062 51.273438 -31.570312 53.171875 -32.15625 C 53.359375 -32.21875 53.582031 -32.28125 53.84375 -32.34375 C 54.113281 -32.414062 54.378906 -32.453125 54.640625 -32.453125 C 55.285156 -32.453125 55.769531 -32.15625 56.09375 -31.5625 Z M 30.390625 -53.171875 C 26.285156 -48.085938 24.5625 -42.191406 25.21875 -35.484375 C 25.21875 -35.410156 25.28125 -35.113281 25.40625 -34.59375 C 25.476562 -34.269531 25.5625 -33.863281 25.65625 -33.375 C 25.75 -32.882812 25.796875 -32.578125 25.796875 -32.453125 L 26.296875 -32.0625 L 31.859375 -36.15625 C 34.015625 -37.789062 36.132812 -39.390625 38.21875 -40.953125 C 40.300781 -42.515625 42.382812 -44.078125 44.46875 -45.640625 C 46.945312 -47.597656 48.867188 -49.878906 50.234375 -52.484375 C 50.691406 -53.328125 50.953125 -54.351562 51.015625 -55.5625 C 51.078125 -56.769531 50.785156 -57.828125 50.140625 -58.734375 C 49.941406 -59.066406 49.566406 -59.441406 49.015625 -59.859375 C 48.460938 -60.285156 47.695312 -60.5625 46.71875 -60.6875 C 46.257812 -60.757812 45.769531 -60.796875 45.25 -60.796875 C 43.625 -60.796875 42.09375 -60.550781 40.65625 -60.0625 C 39.21875 -59.570312 38.078125 -59.128906 37.234375 -58.734375 C 34.628906 -57.429688 32.347656 -55.578125 30.390625 -53.171875 Z M 25.796875 -9.78125 C 27.296875 -11.144531 28.304688 -12.234375 28.828125 -13.046875 C 29.347656 -13.859375 29.394531 -14.785156 28.96875 -15.828125 C 28.550781 -16.867188 27.722656 -18.5 26.484375 -20.71875 C 26.160156 -21.300781 25.832031 -21.867188 25.5 -22.421875 C 25.175781 -22.984375 24.851562 -23.585938 24.53125 -24.234375 L 23.359375 -26.578125 L 23.0625 -26.296875 C 20.132812 -24.015625 17.285156 -21.585938 14.515625 -19.015625 C 11.742188 -16.441406 9.546875 -13.363281 7.921875 -9.78125 L 7.71875 -9.28125 C 7.394531 -8.632812 7.148438 -7.921875 6.984375 -7.140625 C 6.828125 -6.359375 7.171875 -5.539062 8.015625 -4.6875 C 9.191406 -3.519531 10.625 -2.9375 12.3125 -2.9375 C 12.894531 -2.9375 13.515625 -3 14.171875 -3.125 C 16.710938 -3.644531 18.910156 -4.523438 20.765625 -5.765625 C 22.617188 -7.003906 24.296875 -8.34375 25.796875 -9.78125 Z M 25.796875 -9.78125 "/></g></g></g><g fill="#1d1d1d" fill-opacity="1"><g transform="translate(57.925478, 116.988442)"><g><path d="M 103.78125 31.59375 L 103.890625 31.828125 C 103.578125 31.828125 103.140625 31.664062 102.578125 31.34375 C 102.097656 31.03125 101.578125 30.648438 101.015625 30.203125 C 100.453125 29.765625 99.890625 29.347656 99.328125 28.953125 C 99.085938 28.710938 98.867188 28.488281 98.671875 28.28125 C 98.472656 28.082031 98.253906 27.90625 98.015625 27.75 C 97.285156 27.1875 96.582031 26.625 95.90625 26.0625 C 95.226562 25.5 94.566406 24.9375 93.921875 24.375 C 92.484375 23.175781 91.039062 21.992188 89.59375 20.828125 C 88.15625 19.671875 86.675781 18.535156 85.15625 17.421875 C 84.03125 16.535156 82.890625 15.671875 81.734375 14.828125 C 80.578125 13.992188 79.4375 13.132812 78.3125 12.25 C 77.988281 12.007812 77.625 11.75 77.21875 11.46875 C 76.820312 11.1875 76.425781 10.925781 76.03125 10.6875 C 75.226562 10.207031 74.445312 9.6875 73.6875 9.125 C 72.925781 8.5625 72.265625 8.003906 71.703125 7.453125 C 63.140625 1.117188 55.453125 -3.96875 48.640625 -7.8125 C 46.796875 -8.769531 45.394531 -9.25 44.4375 -9.25 C 43.15625 -9.25 42.035156 -8.367188 41.078125 -6.609375 C 40.515625 -5.648438 39.632812 -3.867188 38.4375 -1.265625 C 37.238281 1.335938 35.859375 4.378906 34.296875 7.859375 C 32.734375 11.347656 31.109375 14.992188 29.421875 18.796875 C 27.742188 22.597656 26.144531 26.257812 24.625 29.78125 C 23.101562 33.3125 21.78125 36.375 20.65625 38.96875 C 19.539062 41.570312 18.738281 43.394531 18.25 44.4375 C 17.457031 46.4375 16.617188 48.457031 15.734375 50.5 C 14.847656 52.539062 13.925781 54.566406 12.96875 56.578125 C 12.894531 56.816406 12.796875 57.054688 12.671875 57.296875 C 12.546875 57.535156 12.445312 57.773438 12.375 58.015625 C 12.132812 58.578125 11.910156 59.097656 11.703125 59.578125 C 11.503906 60.054688 11.25 60.535156 10.9375 61.015625 C 10.6875 61.410156 10.398438 61.769531 10.078125 62.09375 C 9.765625 62.414062 9.410156 62.578125 9.015625 62.578125 C 8.609375 62.578125 8.164062 62.414062 7.6875 62.09375 C 5.925781 61.132812 5.40625 59.734375 6.125 57.890625 C 7.25 55.085938 8.367188 52.285156 9.484375 49.484375 C 10.609375 46.679688 11.734375 43.878906 12.859375 41.078125 L 14.53125 37 C 14.851562 36.195312 15.515625 34.613281 16.515625 32.25 C 17.515625 29.882812 18.710938 27.0625 20.109375 23.78125 C 21.515625 20.5 23 17.078125 24.5625 13.515625 C 26.125 9.953125 27.601562 6.523438 29 3.234375 C 30.40625 -0.046875 31.628906 -2.863281 32.671875 -5.21875 C 33.710938 -7.582031 34.394531 -9.164062 34.71875 -9.96875 C 35.03125 -10.613281 35.226562 -11.210938 35.3125 -11.765625 C 35.394531 -12.328125 35.273438 -12.847656 34.953125 -13.328125 C 34.472656 -14.128906 33.351562 -14.8125 31.59375 -15.375 L 29.546875 -15.96875 C 27.304688 -16.613281 25.023438 -17.210938 22.703125 -17.765625 C 20.378906 -18.328125 18.054688 -18.734375 15.734375 -18.984375 C 14.847656 -19.054688 13.960938 -19.234375 13.078125 -19.515625 C 12.203125 -19.796875 11.566406 -20.378906 11.171875 -21.265625 C 10.367188 -22.941406 11.128906 -24.179688 13.453125 -24.984375 C 18.253906 -26.421875 22.753906 -27.78125 26.953125 -29.0625 C 31.160156 -30.34375 35.390625 -31.546875 39.640625 -32.671875 C 43.003906 -33.472656 45.285156 -35.394531 46.484375 -38.4375 C 53.046875 -54.125 59.691406 -68.253906 66.421875 -80.828125 C 66.503906 -80.992188 66.703125 -81.234375 67.015625 -81.546875 C 67.253906 -81.796875 67.492188 -82.097656 67.734375 -82.453125 C 67.984375 -82.816406 68.066406 -83.238281 67.984375 -83.71875 C 67.742188 -84.519531 66.863281 -85.398438 65.34375 -86.359375 C 65.175781 -86.753906 65.410156 -87.289062 66.046875 -87.96875 C 66.691406 -88.65625 67.296875 -89.28125 67.859375 -89.84375 C 68.097656 -90.082031 68.335938 -90.320312 68.578125 -90.5625 C 68.816406 -90.800781 69.054688 -91.039062 69.296875 -91.28125 L 69.78125 -91.890625 C 70.1875 -92.367188 70.648438 -92.847656 71.171875 -93.328125 C 71.691406 -93.804688 72.269531 -94.046875 72.90625 -94.046875 C 73.550781 -94.046875 74.234375 -93.722656 74.953125 -93.078125 C 75.910156 -92.285156 76.328125 -91.46875 76.203125 -90.625 C 76.085938 -89.78125 75.789062 -88.835938 75.3125 -87.796875 L 74.953125 -87.078125 C 72.867188 -82.429688 70.785156 -77.785156 68.703125 -73.140625 C 66.617188 -68.503906 64.535156 -63.863281 62.453125 -59.21875 L 54.65625 -41.796875 C 54.488281 -41.316406 54.304688 -40.851562 54.109375 -40.40625 C 53.910156 -39.96875 53.726562 -39.507812 53.5625 -39.03125 L 52.84375 -37 L 53.5625 -36.875 C 54.050781 -36.789062 54.492188 -36.75 54.890625 -36.75 C 56.015625 -36.75 56.875 -37.050781 57.46875 -37.65625 C 58.070312 -38.257812 58.613281 -38.878906 59.09375 -39.515625 C 59.414062 -39.992188 59.65625 -40.351562 59.8125 -40.59375 C 64.9375 -46.757812 70.476562 -52.820312 76.4375 -58.78125 C 82.40625 -64.75 89.351562 -69.816406 97.28125 -73.984375 C 99.445312 -75.109375 101.726562 -76.109375 104.125 -76.984375 C 106.53125 -77.867188 109.175781 -78.3125 112.0625 -78.3125 L 112.90625 -78.3125 C 116.75 -78.226562 119.671875 -77.023438 121.671875 -74.703125 C 123.585938 -72.378906 124.066406 -69.5 123.109375 -66.0625 C 122.148438 -62.375 120.425781 -59.347656 117.9375 -56.984375 C 115.457031 -54.628906 112.9375 -52.570312 110.375 -50.8125 C 99.40625 -43.28125 85.957031 -38.070312 70.03125 -35.1875 C 59.78125 -33.269531 52.410156 -27.625 47.921875 -18.25 C 47.597656 -17.695312 47.273438 -17.117188 46.953125 -16.515625 C 46.640625 -15.910156 46.320312 -15.332031 46 -14.78125 L 45.046875 -13.09375 L 45.875 -12.484375 C 46.039062 -12.410156 46.601562 -12.070312 47.5625 -11.46875 C 48.519531 -10.863281 49.617188 -10.179688 50.859375 -9.421875 C 52.109375 -8.660156 53.289062 -7.921875 54.40625 -7.203125 C 55.53125 -6.484375 56.332031 -6.003906 56.8125 -5.765625 C 60.5 -3.359375 64.179688 -0.796875 67.859375 1.921875 C 72.179688 5.046875 76.425781 8.347656 80.59375 11.828125 C 84.757812 15.316406 88.84375 18.78125 92.84375 22.21875 C 94.519531 23.65625 96.195312 25.09375 97.875 26.53125 C 99.5625 27.976562 101.25 29.425781 102.9375 30.875 C 103.414062 31.1875 103.695312 31.425781 103.78125 31.59375 Z M 40.71875 -27.5 L 40 -27.390625 C 33.269531 -26.265625 26.820312 -24.582031 20.65625 -22.34375 L 19.453125 -21.859375 L 20.90625 -21.5 C 24.5 -20.375 27.4375 -19.507812 29.71875 -18.90625 C 32.007812 -18.3125 33.796875 -18.015625 35.078125 -18.015625 C 37.078125 -18.015625 38.351562 -18.710938 38.90625 -20.109375 C 39.46875 -21.515625 40.03125 -23.703125 40.59375 -26.671875 Z M 119.03125 -74.109375 C 117.425781 -75.867188 115.382812 -76.75 112.90625 -76.75 C 111.78125 -76.75 110.457031 -76.585938 108.9375 -76.265625 C 102.613281 -74.585938 96.988281 -72.066406 92.0625 -68.703125 C 87.132812 -65.335938 82.671875 -61.53125 78.671875 -57.28125 C 74.671875 -53.039062 70.785156 -48.722656 67.015625 -44.328125 L 62.8125 -39.390625 L 64.265625 -39.640625 C 77.953125 -42.117188 89.878906 -45.722656 100.046875 -50.453125 C 103.566406 -52.046875 106.96875 -53.921875 110.25 -56.078125 C 113.539062 -58.242188 116.304688 -61.050781 118.546875 -64.5 C 119.429688 -65.695312 120.148438 -67.113281 120.703125 -68.75 C 121.265625 -70.394531 120.707031 -72.179688 119.03125 -74.109375 Z M 119.03125 -74.109375 "/></g></g></g></svg>